<?xml version="1.0" standalone="no"?>
<!DOCTYPE svg PUBLIC "-//W3C//DTD SVG 20010904//EN"
 "http://www.w3.org/TR/2001/REC-SVG-20010904/DTD/svg10.dtd">
<svg version="1.0" xmlns="http://www.w3.org/2000/svg"
 width="300.000000pt" height="300.000000pt" viewBox="0 0 300.000000 300.000000"
 preserveAspectRatio="xMidYMid meet">
<metadata>
Created by potrace 1.10, written by Peter Selinger 2001-2011
</metadata>
<g transform="translate(0.000000,300.000000) scale(0.100000,-0.100000)"
fill="#ff800c" stroke="none">
<path d="M1503 2598 c-12 -19 -4 -591 8 -603 7 -7 8 86 3 282 -7 287 -4 344
17 313 6 -9 8 -137 5 -340 -3 -233 -2 -284 4 -180 10 180 13 517 5 530 -9 14
-32 12 -42 -2z"/>
<path d="M1676 2448 c-8 -13 -23 -74 -33 -136 -10 -61 -21 -112 -25 -112 -4 0
-5 6 -3 13 2 6 6 40 9 74 4 60 3 61 -23 65 -15 2 -28 -1 -28 -6 -9 -162 -10
-291 -3 -251 4 28 9 77 9 110 2 79 11 135 24 135 6 0 7 -20 3 -52 -3 -29 -8
-87 -11 -128 l-4 -75 14 55 14 55 -5 -70 c-2 -38 -7 -88 -9 -110 -12 -106 15
29 40 197 29 203 42 255 57 240 7 -7 -3 -77 -32 -219 -23 -114 -44 -219 -46
-233 l-4 -25 10 25 c15 33 90 385 90 420 0 15 -6 33 -14 39 -12 10 -18 8 -30
-11z"/>
<path d="M1330 2425 c0 -19 14 -101 31 -182 17 -81 32 -155 33 -163 7 -41 18
-81 23 -76 3 3 -14 102 -37 221 -24 118 -40 218 -36 222 17 17 28 -27 57 -217
17 -113 32 -207 35 -209 16 -17 -43 400 -61 430 -4 5 -15 9 -26 9 -15 0 -19
-7 -19 -35z"/>
<path d="M1163 2405 c-6 -16 31 -130 71 -220 12 -27 38 -87 56 -132 54 -133
46 -88 -10 58 -95 247 -110 288 -100 294 14 9 33 -35 105 -253 37 -111 70
-200 72 -198 3 3 -7 44 -22 93 -14 48 -29 97 -32 108 -3 11 -11 34 -18 50 -7
17 -22 62 -35 100 -12 39 -29 80 -37 93 -16 25 -41 29 -50 7z"/>
<path d="M1835 2396 c-9 -14 -29 -64 -45 -113 -15 -48 -32 -99 -38 -113 -10
-26 -46 -147 -57 -190 -16 -67 18 23 80 207 62 188 95 259 95 204 0 -18 -26
-89 -137 -369 -14 -35 -23 -66 -20 -68 3 -3 13 15 22 40 18 46 38 65 28 26
-13 -48 8 -11 57 103 49 112 80 167 80 141 0 -6 -27 -68 -61 -138 -33 -70 -59
-129 -57 -132 9 -9 129 237 126 258 -4 28 -36 36 -45 11 -6 -18 -13 -34 -67
-157 -45 -101 -38 -55 7 55 63 149 90 228 83 245 -8 22 -34 17 -51 -10z"/>
<path d="M1017 2343 c-16 -15 -5 -52 33 -113 22 -36 40 -69 40 -75 0 -5 12
-23 26 -40 14 -16 48 -67 76 -113 28 -45 55 -85 59 -88 11 -7 -53 106 -145
253 -41 67 -78 135 -81 150 l-6 28 28 -32 c15 -18 57 -87 92 -155 75 -144 131
-238 131 -222 0 6 -21 49 -46 95 -26 46 -58 109 -72 139 -14 30 -30 58 -34 61
-5 3 -6 14 -2 25 5 16 4 16 -5 4 -8 -12 -11 -12 -11 -1 0 15 -58 91 -69 91 -4
0 -11 -3 -14 -7z"/>
<path d="M1434 2344 c-8 -3 -10 -24 -7 -62 6 -76 32 -235 40 -242 3 -3 3 11 0
30 -14 82 -29 261 -23 267 13 13 16 -6 26 -147 6 -79 13 -146 16 -149 6 -6 -4
242 -12 282 -5 26 -15 31 -40 21z"/>
<path d="M1987 2325 c-15 -13 -27 -28 -27 -32 0 -5 -11 -25 -25 -46 -14 -22
-25 -43 -25 -48 0 -4 -11 -28 -24 -51 -85 -156 -120 -228 -112 -228 4 0 89
150 156 275 51 96 82 145 93 145 22 0 3 -36 -135 -261 -80 -129 -93 -153 -80
-145 6 4 32 41 59 84 26 42 54 85 62 94 13 15 61 99 98 171 15 29 14 58 -2 63
-5 2 -22 -8 -38 -21z"/>
<path d="M1274 2305 c-3 -14 -2 -31 3 -38 5 -6 18 -39 27 -72 23 -79 55 -163
55 -148 1 6 -15 65 -34 132 -38 130 -42 152 -24 134 6 -6 26 -69 44 -139 18
-71 34 -122 34 -113 2 28 -49 241 -60 255 -18 22 -38 16 -45 -11z"/>
<path d="M1722 2303 c-24 -62 -54 -223 -47 -250 l8 -28 13 30 c7 17 23 62 34
100 12 39 26 78 31 87 5 10 9 30 9 45 -1 43 -13 14 -51 -122 -18 -66 -35 -113
-37 -105 -4 24 57 253 71 262 9 6 7 8 -4 8 -9 0 -21 -12 -27 -27z"/>
<path d="M1137 2263 c-7 -12 121 -278 130 -269 2 2 -21 55 -53 117 -31 63 -60
125 -64 139 -4 15 -9 20 -13 13z"/>
<path d="M1214 2152 c80 -179 103 -212 41 -58 -52 129 -74 176 -84 176 -5 0
14 -53 43 -118z"/>
<path d="M871 2236 c-8 -10 -5 -22 15 -52 15 -21 30 -40 35 -42 5 -2 9 -8 9
-14 0 -5 7 -16 15 -24 22 -22 19 -40 -3 -21 -21 19 -52 23 -52 6 0 -6 5 -19
10 -30 6 -10 8 -19 4 -19 -14 0 -74 46 -142 109 -19 17 -37 31 -42 31 -4 0
-13 7 -20 15 -20 24 -50 19 -50 -7 1 -23 27 -62 47 -69 14 -5 118 -95 146
-126 11 -13 27 -23 34 -23 7 0 13 -4 13 -10 0 -15 -9 -12 -41 11 -16 11 -36
18 -44 15 -27 -10 -16 -35 26 -63 23 -15 36 -29 29 -31 -7 -3 -15 -1 -19 4
-12 17 -171 95 -181 89 -15 -9 -12 -45 5 -51 8 -4 15 -12 15 -20 0 -7 6 -11
13 -8 7 2 22 -4 32 -14 11 -10 36 -24 55 -32 19 -8 80 -39 135 -68 55 -30 111
-58 125 -63 50 -18 -7 17 -174 106 -176 94 -215 120 -203 131 10 11 39 -5 199
-104 141 -88 222 -134 203 -114 -19 19 -186 122 -197 122 -9 0 -9 3 0 12 9 9
15 9 20 3 15 -23 154 -97 163 -88 9 9 -107 118 -138 130 -7 3 -13 10 -13 15 0
11 45 -15 87 -52 26 -23 137 -109 173 -134 8 -6 6 -1 -4 12 -18 21 -11 31 10
15 16 -13 -57 56 -137 129 -41 38 -81 73 -89 78 -8 5 -11 12 -7 17 5 4 11 3
15 -2 14 -19 150 -135 159 -135 4 1 -41 48 -102 105 -60 57 -106 107 -102 111
4 5 58 -41 120 -102 104 -102 108 -100 10 6 -24 25 -43 51 -43 58 0 6 -4 12
-10 12 -5 0 -10 5 -10 12 0 6 8 3 20 -7 11 -10 19 -20 17 -24 -1 -3 39 -47 88
-96 50 -50 87 -86 83 -81 -15 19 -8 29 9 15 15 -12 16 -12 8 1 -5 8 -20 30
-33 48 -14 18 -22 35 -18 39 3 4 13 -2 21 -13 8 -10 15 -15 15 -11 0 4 -36 57
-81 118 -44 60 -79 115 -77 121 3 7 18 -6 34 -29 16 -24 54 -78 84 -122 62
-90 80 -102 26 -17 -20 31 -36 60 -36 65 0 5 -4 11 -8 13 -12 4 -72 95 -72
107 0 7 -7 7 -24 0 -16 -7 -22 -17 -19 -29 3 -10 0 -21 -6 -24 -6 -4 -11 0
-11 9 0 8 -7 18 -15 21 -8 4 -12 10 -9 15 3 5 0 8 -8 7 -7 -2 -12 5 -12 14 1
10 -2 16 -6 13 -4 -2 -16 2 -26 10 -24 18 -29 18 -43 1z m174 -180 c69 -87
124 -160 122 -162 -3 -4 -39 35 -210 228 -42 48 -77 95 -77 104 0 30 34 -5
165 -170z m-273 62 c147 -124 368 -322 364 -326 -3 -2 -42 27 -88 65 -46 38
-103 84 -128 103 -114 87 -260 214 -260 226 0 21 22 7 112 -68z m258 11 c0 -5
-4 -9 -10 -9 -5 0 -10 7 -10 16 0 8 5 12 10 9 6 -3 10 -10 10 -16z m32 -47 c9
-15 30 -43 47 -62 17 -19 31 -39 30 -45 0 -14 -89 87 -89 103 0 6 -4 12 -10
12 -5 0 -10 5 -10 10 0 19 16 10 32 -18z m-132 -56 c0 -11 -19 -15 -25 -6 -3
5 1 10 9 10 9 0 16 -2 16 -4z m63 -177 c32 -23 56 -43 54 -46 -9 -8 -248 158
-242 168 4 5 34 -11 68 -36 34 -25 88 -64 120 -86z"/>
<path d="M2112 2216 c-17 -19 -32 -33 -34 -30 -3 2 -11 -8 -19 -24 -15 -29
-34 -52 -43 -52 -3 0 4 16 15 36 13 24 17 40 11 46 -19 19 -48 -2 -81 -57 -18
-30 -37 -55 -42 -55 -5 0 -9 -4 -9 -10 0 -5 -13 -32 -30 -58 -34 -56 -39 -75
-10 -41 23 29 26 13 4 -21 -9 -14 0 -8 20 13 20 21 36 42 36 47 0 4 4 10 8 12
5 2 20 21 35 43 15 22 27 34 27 26 0 -15 -68 -111 -79 -111 -3 0 -15 -16 -25
-35 -10 -19 -28 -44 -38 -55 -11 -12 -18 -23 -16 -26 3 -2 73 81 157 186 84
104 156 190 162 190 20 0 7 -29 -33 -76 -24 -27 -87 -98 -141 -159 -55 -60
-103 -119 -109 -130 -6 -14 -1 -11 16 7 16 18 27 24 32 17 4 -7 48 30 110 92
57 57 106 100 110 96 4 -3 1 -13 -6 -22 -7 -8 -8 -15 -2 -15 10 0 22 23 22 41
0 15 -37 10 -55 -7 -9 -9 -18 -14 -22 -11 -3 3 6 17 20 31 15 14 23 26 20 26
-4 0 5 12 19 28 38 40 49 67 36 80 -19 19 -34 14 -66 -22z m-82 -37 c0 -14
-131 -191 -137 -185 -6 5 120 195 130 196 4 0 7 -5 7 -11z m33 -126 c-7 -3
-13 -9 -13 -14 0 -6 -15 -27 -34 -47 -18 -20 -45 -50 -59 -67 -15 -16 -27 -25
-27 -18 0 15 133 163 140 156 3 -3 -1 -8 -7 -10z"/>
<path d="M2232 2100 c-23 -16 -44 -30 -48 -30 -3 0 -12 -7 -21 -16 -9 -8 -22
-13 -29 -10 -7 3 -53 -34 -106 -86 -51 -50 -85 -85 -75 -78 35 25 30 -2 -7
-37 -25 -24 -34 -39 -27 -46 7 -7 22 -1 46 17 20 16 39 25 43 21 3 -3 0 -10
-7 -14 -13 -8 -7 -31 8 -31 4 0 35 18 69 40 33 22 65 40 71 40 5 0 11 5 13 12
3 7 7 8 10 2 4 -5 -46 -42 -110 -81 -64 -39 -126 -79 -137 -88 -26 -22 77 35
190 103 243 148 369 222 382 222 46 0 -15 -40 -295 -194 -205 -112 -289 -161
-266 -154 25 7 369 183 375 192 4 5 12 5 19 1 8 -5 11 -4 7 1 -3 5 36 34 86
64 51 31 93 63 95 73 7 34 -62 38 -88 6 -8 -11 -140 -81 -140 -75 0 3 -12 -6
-26 -19 -15 -14 -34 -25 -42 -25 -9 0 -5 8 12 21 14 11 26 27 26 35 0 19 -28
30 -43 15 -6 -6 -18 -11 -26 -11 -11 0 -9 5 7 20 12 11 24 20 28 20 7 0 46 39
73 73 11 14 11 20 1 32 -17 20 -21 19 -68 -15z m56 -2 c-2 -7 -57 -55 -121
-107 -65 -51 -116 -96 -113 -98 3 -3 19 5 35 17 17 12 31 18 31 13 0 -14 -59
-45 -70 -38 -6 4 -36 -14 -66 -40 -30 -26 -57 -45 -60 -43 -2 3 42 45 98 94
57 49 121 105 143 125 77 70 100 88 113 89 8 0 12 -6 10 -12z m-183 -108 c-10
-11 -22 -17 -27 -14 -5 3 -1 12 9 20 27 20 39 17 18 -6z m143 -20 c-4 -11
-240 -172 -245 -167 -4 5 229 176 240 177 5 0 7 -4 5 -10z m-214 -40 c-21 -22
-42 -40 -48 -40 -5 0 8 18 29 40 21 22 43 40 47 40 5 0 -8 -18 -28 -40z m141
30 c3 -5 1 -10 -4 -10 -6 0 -11 5 -11 10 0 6 2 10 4 10 3 0 8 -4 11 -10z m25
-60 c0 -5 -5 -10 -11 -10 -5 0 -7 5 -4 10 3 6 8 10 11 10 2 0 4 -4 4 -10z
m-156 -45 c-10 -8 -23 -14 -29 -14 -5 0 -1 6 9 14 11 8 24 15 30 15 5 0 1 -7
-10 -15z"/>
<path d="M1582 2060 c0 -14 2 -19 5 -12 2 6 2 18 0 25 -3 6 -5 1 -5 -13z"/>
<path d="M1505 1860 c-13 -21 -6 -235 9 -290 l14 -55 -4 55 c-12 177 -13 279
-4 285 12 7 12 5 12 -160 -1 -102 1 -122 9 -95 10 37 13 245 3 261 -7 12 -31
11 -39 -1z"/>
<path d="M716 1845 c-3 -9 3 -23 13 -31 17 -15 172 -84 223 -99 51 -16 -2 15
-97 55 -55 24 -107 49 -115 57 -27 25 9 14 98 -31 105 -53 171 -81 157 -67
-16 16 -243 131 -259 131 -8 0 -16 -7 -20 -15z"/>
<path d="M2194 1807 c-56 -28 -112 -60 -125 -70 -29 -22 -32 -23 115 47 66 31
124 55 130 52 10 -3 -95 -56 -221 -111 -24 -10 -41 -20 -39 -22 4 -4 81 23
133 47 24 11 45 20 48 20 3 0 26 10 51 21 35 17 44 26 42 43 -2 11 -10 22 -18
23 -8 2 -61 -21 -116 -50z"/>
<path d="M1374 1836 c-3 -8 2 -39 12 -68 10 -29 19 -60 20 -68 0 -8 16 -41 34
-73 18 -32 30 -60 27 -63 -3 -3 -24 27 -46 68 -22 40 -41 67 -41 59 0 -11 -4
-10 -14 4 -8 11 -13 24 -12 30 2 5 1 7 -1 3 -3 -4 -20 9 -39 29 -31 33 -36 35
-50 21 -13 -12 -14 -20 -5 -37 7 -11 16 -21 21 -21 5 0 7 -7 4 -15 -4 -9 0
-15 8 -15 8 0 23 -9 33 -20 16 -18 16 -20 2 -20 -10 0 -17 -5 -17 -11 0 -5 4
-7 10 -4 10 6 123 -85 115 -93 -2 -2 -25 14 -52 36 -26 22 -61 42 -76 46 -18
4 -25 11 -21 19 4 7 4 9 -1 5 -4 -4 -25 2 -46 12 -50 26 -71 26 -67 -1 2 -13
22 -30 53 -47 28 -14 52 -28 54 -29 2 -1 -2 -10 -10 -20 -12 -15 -12 -16 4
-10 10 4 46 -4 82 -18 36 -13 73 -21 82 -18 10 4 14 2 10 -4 -4 -6 3 -13 14
-16 19 -5 20 -4 5 12 -9 10 -14 20 -11 23 3 2 -34 49 -82 104 -47 54 -93 107
-101 117 -13 15 -13 17 0 17 8 0 53 -49 101 -109 58 -75 91 -109 103 -107 25
4 26 14 10 92 -11 52 -12 71 -3 76 8 5 5 8 -8 8 -16 0 -25 13 -40 57 -20 58
-49 81 -61 49z m73 -131 c24 -72 42 -134 40 -140 -2 -5 -10 8 -17 30 -7 22
-30 84 -51 138 -43 108 -44 110 -27 105 6 -2 31 -62 55 -133z m-125 -112 c60
-36 107 -68 104 -70 -6 -6 -246 130 -246 140 0 14 25 2 142 -70z"/>
<path d="M1627 1823 c-8 -16 -17 -41 -21 -58 -4 -16 -13 -37 -21 -45 -14 -16
-38 -138 -29 -151 3 -5 0 -18 -7 -30 -9 -17 -8 -20 2 -14 9 6 10 3 5 -10 -7
-18 -6 -18 13 -1 11 10 25 15 31 11 11 -7 10 16 -2 25 -7 6 156 213 172 218
24 8 5 -19 -75 -110 -47 -53 -85 -99 -85 -103 0 -4 25 14 55 40 30 25 55 42
55 36 0 -5 -25 -29 -55 -52 -30 -24 -52 -45 -50 -47 2 -2 53 26 113 62 119 71
142 83 142 69 0 -9 -241 -143 -265 -147 -18 -3 -32 -16 -17 -16 6 0 46 14 89
30 80 31 104 37 88 21 -6 -5 -35 -17 -65 -26 -81 -27 -45 -29 71 -6 111 23
166 27 138 11 -18 -11 -199 -41 -267 -45 -84 -5 -55 -16 35 -14 51 2 96 0 99
-4 4 -4 -40 -7 -97 -7 -71 0 -99 -3 -89 -10 8 -5 29 -7 45 -5 30 6 262 -28
273 -39 17 -17 -19 -15 -132 9 -70 15 -131 25 -137 23 -5 -2 22 -14 61 -27 38
-13 70 -28 70 -32 0 -8 -33 2 -128 40 -63 25 -63 25 -55 5 3 -8 12 -13 19 -10
8 3 67 -24 132 -60 121 -68 139 -80 130 -89 -2 -3 -47 20 -99 51 -52 31 -110
65 -129 76 l-35 20 25 -24 c14 -12 41 -36 59 -51 18 -15 32 -30 29 -32 -2 -3
-31 18 -63 45 -32 27 -62 47 -67 44 -5 -3 -7 0 -6 7 2 6 -3 14 -10 16 -11 4
-12 1 -3 -15 18 -33 12 -39 -10 -12 -16 20 -18 21 -10 4 6 -12 8 -24 5 -27 -3
-2 1 -39 9 -81 11 -55 11 -76 3 -76 -6 0 0 -6 13 -13 16 -8 29 -28 38 -58 12
-45 34 -66 54 -53 13 8 11 28 -10 88 -19 54 -19 54 2 60 21 5 46 -17 47 -43 0
-8 3 -12 6 -8 3 3 14 -3 25 -14 21 -21 44 -25 54 -9 7 11 -25 70 -38 70 -4 0
-6 4 -3 9 3 5 -2 12 -11 15 -15 6 -15 9 -3 17 13 9 12 10 -2 5 -10 -3 -20 -1
-23 4 -4 6 -1 10 4 10 6 0 11 7 11 15 0 10 16 5 58 -20 65 -40 92 -44 92 -16
0 19 -28 43 -83 71 -17 8 -26 19 -22 28 3 7 5 17 5 21 0 10 48 2 55 -8 7 -12
88 3 93 17 5 16 -57 42 -101 42 -30 0 -34 3 -34 25 0 16 5 25 16 26 51 4 76
10 98 24 33 22 14 48 -31 40 -17 -3 -43 -7 -58 -9 -15 -3 -32 -7 -37 -10 -5
-3 -7 3 -4 14 3 13 0 20 -8 20 -8 0 9 14 37 30 87 51 96 80 24 77 -22 -1 -35
-4 -29 -8 6 -3 -4 -16 -24 -28 -41 -25 -47 -26 -47 -6 0 8 -5 15 -11 15 -5 0
-7 5 -4 10 4 6 11 7 17 4 7 -4 8 -2 4 5 -4 6 0 14 9 17 24 10 57 78 43 92 -16
16 -41 -1 -83 -55 -19 -25 -35 -40 -35 -32 0 17 -83 -121 -83 -138 0 -11 -27
-28 -27 -17 0 2 18 37 41 77 23 40 42 81 43 92 2 11 11 44 20 72 10 29 15 57
11 63 -11 18 -34 10 -48 -17z m14 -60 c-62 -163 -74 -193 -78 -189 -2 2 12 53
33 112 53 154 52 154 64 154 5 0 -3 -35 -19 -77z m63 -496 c42 -49 76 -93 76
-98 0 -18 -18 0 -101 101 -45 55 -83 100 -86 100 -2 0 12 -29 32 -65 20 -36
33 -65 28 -65 -14 0 -73 119 -66 136 7 19 5 21 117 -109z m-86 -32 c28 -71 48
-134 45 -139 -9 -13 -21 15 -64 142 -36 107 -45 142 -35 131 2 -2 27 -62 54
-134z"/>
<path d="M574 1815 c-9 -24 11 -41 72 -60 41 -13 52 -20 43 -27 -10 -6 -7 -7
10 -3 13 4 33 2 45 -3 30 -15 288 -93 293 -89 4 5 -149 59 -302 108 -121 38
-161 57 -148 70 10 10 41 -1 297 -100 71 -28 132 -49 134 -46 4 4 -44 26 -108
50 -19 7 -57 22 -85 35 -107 47 -199 80 -226 80 -11 0 -22 -7 -25 -15z"/>
<path d="M2382 1815 c-18 -8 -35 -14 -37 -14 -3 -1 -22 -8 -43 -17 -20 -9 -91
-38 -157 -65 -65 -27 -124 -54 -130 -60 -7 -7 -3 -8 15 0 55 23 386 149 407
155 27 8 40 -10 16 -22 -10 -5 -108 -40 -218 -77 -110 -37 -207 -71 -215 -76
-20 -13 -4 -9 128 31 57 17 106 30 108 27 2 -2 -33 -17 -78 -32 -46 -15 -87
-32 -93 -37 -6 -6 -5 -7 5 -4 34 13 260 76 270 76 5 0 10 -4 10 -9 0 -5 -60
-23 -132 -41 -73 -18 -135 -35 -138 -37 -14 -14 210 32 258 53 51 22 35 39
-33 38 -55 -1 -57 -1 -29 11 16 6 38 9 48 7 11 -3 17 -1 13 5 -3 5 19 18 49
28 53 18 81 45 69 65 -9 14 -54 12 -93 -5z"/>
<path d="M1566 1735 c-3 -8 -1 -15 4 -15 6 0 10 7 10 15 0 8 -2 15 -4 15 -2 0
-6 -7 -10 -15z"/>
<path d="M664 1698 c-8 -13 21 -37 56 -44 14 -3 52 -11 85 -19 131 -31 142
-22 15 11 -126 33 -179 54 -137 54 15 0 230 -59 277 -76 10 -3 11 -2 5 4 -16
15 -231 82 -264 82 -16 0 -33 -5 -37 -12z"/>
<path d="M548 1662 c-10 -2 -18 -12 -18 -23 0 -24 32 -37 125 -50 38 -5 99
-14 135 -19 90 -14 206 -24 200 -18 -3 3 -88 18 -190 33 -102 14 -202 31 -222
36 -41 11 -51 29 -17 29 17 0 380 -70 444 -86 18 -4 18 -4 2 6 -33 21 -424 99
-459 92z"/>
<path d="M2390 1654 c-30 -7 -89 -20 -130 -29 -41 -9 -84 -18 -95 -20 -68 -14
-118 -29 -109 -32 6 -2 101 14 211 37 209 42 243 46 243 30 0 -14 -52 -25
-265 -55 -104 -16 -197 -32 -205 -36 -16 -9 3 -7 140 12 47 6 96 9 110 7 14
-2 -6 -8 -45 -12 -38 -4 -83 -12 -100 -17 -31 -9 13 -7 183 8 47 4 72 2 72 -4
0 -6 -48 -14 -117 -18 -65 -4 -126 -11 -138 -16 -13 -6 7 -8 59 -4 43 3 103 5
132 5 92 0 112 59 20 61 l-41 1 45 9 c143 29 155 33 158 56 5 34 -28 38 -128
17z"/>
<path d="M647 1563 c-4 -3 -7 -14 -7 -24 0 -13 11 -19 43 -23 80 -10 242 -15
227 -7 -8 5 -68 12 -133 16 -64 4 -120 12 -124 18 -6 10 11 9 212 -9 107 -10
74 2 -55 20 -126 18 -153 19 -163 9z"/>
<path d="M1160 1563 c-28 -6 -41 -20 -33 -39 5 -13 20 -17 101 -30 30 -4 41
-9 34 -16 -6 -6 -8 -17 -5 -24 4 -11 -5 -14 -36 -14 -47 0 -104 -25 -98 -43 6
-20 77 -26 114 -11 18 8 33 11 32 7 -3 -18 2 -27 9 -17 4 6 39 23 77 37 89 33
67 33 -81 2 -135 -29 -153 -30 -137 -14 16 16 240 51 280 44 17 -3 34 -1 38 4
3 7 -32 11 -97 14 l-103 3 103 2 c67 1 101 6 97 12 -4 6 -11 8 -16 4 -13 -8
-291 36 -303 47 -16 15 35 10 143 -12 120 -24 151 -21 63 8 -34 11 -62 17 -62
13 0 -3 -22 -2 -50 4 -31 6 -45 13 -37 18 13 8 8 8 -33 1z"/>
<path d="M1495 1530 c3 -5 8 -10 11 -10 2 0 4 5 4 10 0 6 -5 10 -11 10 -5 0
-7 -4 -4 -10z"/>
<path d="M528 1490 c-10 -6 -18 -17 -18 -24 0 -8 8 -17 18 -21 20 -8 235 -7
377 1 181 11 114 17 -125 11 -139 -4 -241 -3 -250 3 -31 19 25 23 259 18 130
-3 211 -2 181 3 -107 14 -424 21 -442 9z"/>
<path d="M2269 1496 c-2 -2 -55 -6 -117 -9 -206 -10 -129 -16 123 -10 210 5
247 4 243 -8 -4 -12 -48 -14 -254 -13 -137 1 -226 0 -199 -2 68 -6 86 -14 60
-24 -17 -7 -16 -9 10 -10 128 -6 256 -17 261 -23 16 -16 -10 -16 -137 -2 -159
18 -181 18 -114 0 l50 -13 -85 4 -85 4 75 -15 c41 -8 140 -24 219 -35 155 -23
200 -35 185 -50 -6 -6 -84 5 -204 29 -248 49 -270 53 -270 47 0 -10 404 -96
452 -96 34 0 38 3 38 25 0 29 -30 40 -155 56 -92 12 -118 24 -33 16 45 -4 59
-2 71 11 28 32 -5 45 -117 49 -55 2 -102 6 -105 9 -8 9 284 -2 297 -10 7 -4
12 -2 12 3 0 6 6 11 14 11 7 0 20 7 27 16 26 32 -13 44 -141 44 -64 0 -119 -2
-121 -4z m1 -124 c0 -5 -13 -7 -30 -4 -16 2 -30 6 -30 8 0 2 14 4 30 4 17 0
30 -4 30 -8z"/>
<path d="M1450 1429 c0 -5 -4 -8 -8 -5 -14 8 -145 -47 -172 -72 -14 -13 -33
-21 -42 -18 -10 2 -16 1 -13 -4 3 -4 -6 -15 -20 -24 -55 -36 -17 -71 41 -37
19 12 40 18 46 15 6 -4 8 -2 4 4 -3 6 -1 14 5 18 6 4 16 -1 21 -10 5 -9 15
-13 21 -10 7 4 1 -5 -12 -19 -13 -15 -27 -24 -31 -22 -12 8 -43 -76 -32 -87
12 -12 72 10 72 27 1 5 12 24 25 40 19 22 25 26 25 13 0 -11 5 -15 15 -12 8 4
15 1 15 -5 0 -6 -4 -11 -8 -11 -5 0 -9 -6 -10 -12 0 -7 -7 -32 -14 -56 -10
-36 -10 -44 2 -52 24 -15 33 -1 71 97 5 15 14 20 28 16 17 -4 20 -13 20 -65
-1 -63 9 -85 34 -75 20 8 27 162 11 241 -13 61 -13 61 -12 -69 0 -170 0 -171
-12 -159 -7 7 -7 64 -1 170 5 87 7 160 6 162 -2 2 -11 -42 -21 -97 -10 -56
-21 -101 -26 -101 -10 0 -11 -2 7 72 8 35 14 72 13 83 0 11 3 29 6 40 10 27
-39 -48 -69 -107 -21 -40 -45 -69 -45 -55 0 3 18 35 40 73 21 37 37 71 35 75
-3 4 1 9 7 12 7 2 11 7 8 10 -3 3 -36 -21 -74 -54 -39 -32 -75 -59 -80 -59 -6
1 7 15 29 33 69 55 120 106 108 107 -7 0 -13 -5 -13 -11z m-13 -15 c-17 -17
-251 -153 -256 -149 -9 10 22 31 114 80 50 26 99 54 110 61 20 14 44 19 32 8z
m16 -36 c-15 -26 -163 -207 -174 -214 -32 -19 6 36 85 125 84 94 108 119 89
89z m-7 -148 c-24 -68 -48 -126 -55 -128 -11 -4 10 58 70 212 40 103 30 46
-15 -84z"/>
<path d="M708 1423 c-31 -2 -61 -10 -67 -16 -15 -19 2 -38 35 -39 59 0 300 38
254 41 -8 0 -73 -6 -144 -14 -71 -9 -131 -13 -134 -10 -13 13 17 19 136 27 70
5 132 10 137 12 12 5 -133 4 -217 -1z"/>
<path d="M965 1389 c-115 -16 -135 -19 -177 -25 -320 -43 -388 -60 -388 -94 0
-36 69 -28 460 55 96 21 182 42 190 47 10 6 3 6 -20 2 -19 -4 -75 -15 -125
-24 -49 -10 -179 -34 -288 -55 -183 -36 -225 -39 -201 -16 10 10 152 36 419
76 162 25 254 44 210 43 -11 0 -47 -4 -80 -9z"/>
<path d="M910 1323 c-30 -5 -139 -29 -197 -44 -46 -12 -62 -35 -40 -56 12 -12
26 -10 96 12 45 15 84 25 87 23 2 -3 -54 -24 -125 -47 -135 -45 -174 -69 -152
-95 13 -15 38 -14 83 5 34 14 60 6 52 -16 -5 -11 2 -19 24 -27 l30 -12 -38
-18 c-54 -27 -91 -64 -84 -82 10 -25 40 -19 115 24 80 45 97 51 55 17 -20 -16
-27 -29 -23 -40 7 -19 42 -23 52 -7 3 6 11 10 17 10 7 0 2 -9 -10 -20 -12 -11
-26 -20 -32 -20 -6 0 -8 -5 -4 -12 5 -8 2 -9 -12 -4 -10 4 -15 4 -12 0 4 -3
-6 -20 -22 -38 -17 -17 -30 -36 -30 -43 0 -30 50 -28 86 4 11 10 40 34 64 53
43 33 44 33 23 6 -41 -52 -18 -91 29 -49 18 16 18 16 12 0 -3 -9 -10 -17 -15
-17 -5 0 -9 -5 -9 -10 0 -6 -12 -23 -26 -38 -29 -31 -47 -69 -38 -83 9 -15 39
-10 61 10 12 11 24 17 27 14 3 -4 6 -2 6 4 0 5 11 23 25 39 14 16 25 33 25 38
0 5 2 7 5 4 3 -3 1 -17 -4 -30 -7 -18 -6 -29 2 -37 18 -18 31 -13 52 18 28 43
30 31 2 -18 -13 -22 -27 -38 -31 -34 -4 5 -6 3 -5 -2 5 -19 -12 -55 -23 -49
-6 4 -8 2 -5 -4 4 -5 -9 -34 -28 -63 -38 -58 -45 -106 -18 -116 31 -12 71 51
251 400 57 109 99 196 93 192 -6 -3 -11 -1 -11 6 0 17 -29 -22 -95 -129 -32
-51 -60 -91 -62 -88 -2 2 6 21 20 43 13 21 30 49 37 63 13 24 12 24 -5 10 -17
-14 -18 -13 -12 4 7 17 6 17 -10 5 -24 -19 -53 -51 -53 -58 0 -10 -47 -61 -56
-61 -4 0 5 13 20 29 16 17 23 31 18 35 -6 3 -32 -22 -58 -56 -110 -145 -154
-190 -154 -155 0 15 251 300 258 293 2 -3 -8 -19 -22 -37 -15 -17 -24 -34 -22
-37 6 -5 30 22 80 92 l30 41 -32 -29 c-39 -36 -43 -23 -5 16 15 15 22 28 15
28 -6 0 -21 -13 -34 -30 -24 -33 -44 -40 -34 -12 3 9 -41 -32 -99 -92 -58 -60
-109 -106 -112 -102 -4 4 35 49 87 101 52 52 90 95 84 95 -6 0 -32 -21 -58
-46 -26 -26 -49 -44 -52 -42 -7 7 117 118 130 117 6 0 5 -3 -1 -6 -7 -2 -13
-9 -13 -15 0 -6 6 -5 15 2 10 9 12 17 6 23 -6 6 0 18 17 34 19 17 21 21 7 14
-11 -6 -94 -76 -184 -156 -90 -80 -167 -145 -172 -145 -25 0 -3 33 49 74 31
25 96 76 143 113 47 38 106 86 130 107 l44 39 -37 -22 c-21 -12 -42 -20 -48
-16 -6 4 -57 -28 -114 -69 -57 -42 -112 -79 -123 -83 -39 -15 9 26 117 98 60
41 108 75 106 77 -6 5 -76 -31 -76 -40 0 -4 -7 -8 -15 -8 -8 0 -15 -4 -15 -8
0 -5 -18 -18 -40 -31 -22 -12 -40 -17 -40 -12 0 6 4 11 10 11 16 0 221 145
210 148 -5 2 -8 8 -5 13 9 13 -14 3 -153 -68 -69 -35 -132 -63 -141 -63 -9 1
7 11 34 23 56 25 205 106 205 112 0 6 -68 -24 -172 -76 -54 -27 -103 -49 -110
-49 -20 1 30 35 70 50 66 23 197 90 179 90 -9 0 -25 -4 -35 -10 -25 -14 -110
-50 -117 -50 -4 0 -29 -11 -56 -24 -27 -14 -51 -21 -53 -17 -5 8 13 17 154 73
41 16 79 33 85 37 5 5 21 11 35 14 14 3 34 13 45 21 22 17 -88 -23 -288 -103
-124 -50 -167 -60 -167 -42 0 11 35 24 277 106 95 32 171 60 168 63 -2 2 -35
-5 -74 -17 -84 -26 -99 -26 -46 0 l40 19 -35 -6 c-19 -4 -78 -19 -130 -35 -56
-17 -98 -25 -104 -19 -9 9 -3 11 167 54 54 13 101 27 104 30 4 3 2 5 -3 5 -5
-1 -20 -4 -34 -6z m145 -131 c-6 -5 -55 -36 -110 -69 -55 -34 -138 -84 -184
-112 -90 -54 -101 -59 -101 -38 0 8 44 38 98 67 53 29 140 77 192 106 87 49
129 67 105 46z m-5 -92 c0 -5 -5 -10 -11 -10 -5 0 -7 5 -4 10 3 6 8 10 11 10
2 0 4 -4 4 -10z m-55 -45 c-16 -13 -32 -22 -35 -19 -2 3 3 10 13 15 9 6 23 16
30 24 6 7 14 11 17 8 3 -3 -8 -15 -25 -28z m206 -166 c-163 -299 -232 -412
-243 -401 -7 7 9 43 50 114 102 176 275 458 279 454 2 -2 -37 -77 -86 -167z
m-91 126 c0 -10 -73 -85 -78 -81 -2 3 10 20 27 38 17 18 31 36 31 41 0 4 5 7
10 7 6 0 10 -2 10 -5z m-180 -9 c0 -3 -4 -8 -10 -11 -5 -3 -10 -1 -10 4 0 6 5
11 10 11 6 0 10 -2 10 -4z m-30 -20 c0 -3 -4 -8 -10 -11 -5 -3 -10 -1 -10 4 0
6 5 11 10 11 6 0 10 -2 10 -4z m240 -81 c-24 -34 -29 -50 -21 -58 6 -6 11 -16
11 -21 0 -6 -7 -3 -15 8 -13 17 -16 15 -45 -33 -18 -28 -36 -51 -42 -51 -16 0
-3 24 68 120 67 93 102 120 44 35z m-190 35 c0 -5 -5 -10 -11 -10 -5 0 -7 5
-4 10 3 6 8 10 11 10 2 0 4 -4 4 -10z m52 -52 c-7 -7 -12 -8 -12 -2 0 14 12
26 19 19 2 -3 -1 -11 -7 -17z m48 -48 c0 -5 -5 -10 -11 -10 -5 0 -7 5 -4 10 3
6 8 10 11 10 2 0 4 -4 4 -10z"/>
<path d="M2080 1327 c3 -2 66 -19 140 -37 126 -31 160 -43 149 -54 -2 -3 -58
11 -124 30 -119 34 -153 41 -125 25 12 -7 133 -48 199 -67 8 -3 12 -7 9 -10
-5 -4 -259 73 -316 97 -13 5 -28 9 -35 9 -22 -1 57 -31 308 -117 260 -89 305
-107 305 -123 0 -6 -3 -10 -6 -10 -13 0 -169 57 -309 112 -186 74 -307 119
-312 115 -3 -4 68 -36 125 -57 17 -7 32 -16 32 -21 0 -4 -17 -1 -37 7 -88 36
-8 -9 110 -62 70 -31 127 -61 127 -65 0 -5 -2 -9 -5 -9 -5 0 -241 112 -267
127 -5 2 -8 2 -8 -1 0 -6 153 -94 186 -106 15 -6 24 -13 21 -16 -3 -4 -54 19
-112 50 -114 61 -175 88 -142 62 10 -8 99 -57 197 -111 169 -91 210 -118 197
-131 -7 -8 -48 15 -210 115 -78 49 -157 96 -176 105 -58 30 -24 0 56 -50 78
-49 124 -84 108 -84 -4 0 -22 11 -39 23 -17 13 -52 36 -77 50 -87 51 -62 27
52 -49 119 -80 161 -114 142 -114 -7 0 -61 35 -120 78 -129 93 -150 106 -100
58 49 -48 48 -57 -2 -14 -22 18 -54 42 -73 52 l-33 19 19 -21 c22 -26 11 -29
-18 -6 -12 9 29 -32 89 -91 61 -60 96 -99 79 -87 -17 11 -37 28 -44 37 -7 9
-36 34 -64 57 -29 23 -1 -10 64 -75 62 -64 111 -120 107 -124 -5 -4 -56 43
-115 105 -77 81 -112 111 -123 107 -10 -4 -19 0 -22 9 -4 9 -11 16 -18 16 -14
0 24 -48 161 -199 119 -132 146 -168 136 -178 -10 -10 -44 26 -146 157 -104
133 -188 228 -171 195 5 -11 30 -45 55 -75 25 -29 43 -56 40 -59 -4 -4 -19 13
-46 53 -4 6 -10 7 -14 4 -3 -4 28 -53 70 -110 42 -57 76 -106 76 -110 0 -25
-26 5 -93 107 -76 114 -86 132 -67 120 6 -4 7 1 3 11 -5 14 -7 14 -15 1 -9
-16 -1 -41 32 -94 34 -57 11 -36 -27 25 -20 31 -45 68 -56 82 l-19 25 6 -25
c7 -24 6 -24 -8 -6 -29 36 -17 7 54 -133 39 -75 70 -142 70 -147 -1 -5 -19 27
-41 71 -55 108 -90 158 -102 146 -6 -6 -5 -21 2 -42 22 -62 4 -39 -29 38 -85
199 -36 42 68 -217 78 -195 114 -302 104 -312 -13 -13 -42 59 -133 326 -43
127 -84 246 -91 264 -11 28 -10 34 2 42 11 7 11 10 2 10 -7 0 -15 -6 -18 -14
-5 -13 21 -108 47 -174 5 -13 9 -31 8 -40 0 -9 -9 7 -20 36 -35 91 -30 52 12
-92 36 -123 42 -162 23 -143 -3 3 -21 63 -39 134 -18 70 -34 117 -34 103 0
-14 8 -62 19 -108 11 -46 20 -91 19 -100 -1 -23 -2 -18 -45 161 -20 86 -39
155 -41 153 -3 -2 16 -109 42 -236 30 -149 43 -236 37 -242 -6 -6 -12 -6 -16
0 -3 5 -22 112 -41 238 -31 196 -42 253 -46 233 -5 -26 -4 -47 2 -43 4 2 7
-22 7 -53 l-1 -58 -9 43 c-16 76 -17 42 -1 -106 13 -131 13 -165 -2 -150 -3 3
-10 70 -16 149 -6 79 -13 146 -15 148 -2 2 -4 -31 -4 -74 0 -43 -2 -76 -4 -74
-2 2 -7 51 -10 108 -3 57 -9 108 -13 114 -11 18 -33 -25 -34 -67 0 -31 -2 -36
-8 -21 -9 22 -15 -23 -27 -190 -3 -49 -8 -92 -10 -94 -17 -18 -14 65 12 274
l4 40 -14 -30 -15 -30 4 50 c9 107 -14 13 -40 -160 -29 -201 -41 -255 -55
-255 -16 0 -12 25 31 234 22 109 38 205 36 214 -2 9 -9 -11 -17 -45 -13 -65
-30 -88 -22 -30 9 61 -6 22 -38 -105 -18 -71 -37 -128 -41 -128 -13 0 -12 7
26 136 33 112 47 191 21 114 -39 -112 -42 -91 -5 32 17 60 20 81 11 90 -9 9
-19 -5 -42 -57 -17 -37 -33 -65 -36 -62 -3 3 0 15 6 27 6 12 9 24 6 27 -5 5
-28 -44 -91 -189 -16 -38 -33 -68 -37 -68 -15 0 -8 19 45 127 56 114 69 143
63 143 -6 0 -48 -75 -96 -168 -43 -86 -46 -116 -8 -110 16 2 29 22 55 83 19
44 39 85 45 90 5 6 2 -8 -7 -30 -97 -232 -109 -277 -79 -289 25 -10 40 9 66
80 18 52 24 60 28 42 4 -15 14 -24 32 -26 22 -3 26 1 32 33 4 21 9 35 12 32 3
-2 -3 -43 -12 -90 -14 -70 -15 -89 -4 -102 34 -41 54 -11 74 115 12 73 14 78
15 38 1 -38 5 -48 22 -53 25 -8 36 1 42 35 2 14 5 -14 6 -61 1 -66 5 -90 17
-100 14 -11 19 -10 35 10 15 18 19 41 20 100 1 49 4 65 8 46 5 -24 12 -30 31
-30 21 0 26 6 31 35 5 32 6 30 13 -25 10 -79 19 -106 38 -119 21 -13 50 10 44
33 -3 9 -8 40 -11 70 -7 52 -7 54 10 37 13 -12 21 -14 28 -7 28 28 44 11 82
-94 42 -115 57 -135 83 -118 21 13 22 38 5 81 -8 18 -11 38 -7 44 4 7 3 8 -4
4 -8 -4 -12 0 -12 11 0 11 -4 23 -9 29 -4 5 -15 30 -24 56 l-16 47 30 -6 c26
-5 29 -3 30 23 1 17 3 22 6 11 2 -9 8 -15 13 -12 4 2 13 -8 19 -23 12 -29 57
-82 69 -82 4 0 12 8 19 18 9 15 7 28 -7 60 -11 23 -16 42 -13 42 4 0 -2 7 -13
15 -19 14 -11 20 22 16 16 -2 27 30 14 43 -5 5 -10 14 -10 20 0 5 9 0 20 -12
11 -12 20 -24 20 -27 0 -8 36 -42 65 -61 23 -15 28 -15 41 -2 19 19 7 51 -35
95 -37 38 -37 41 -8 45 16 2 22 9 21 26 0 12 3 22 8 22 4 0 8 -5 8 -10 0 -6 3
-9 8 -8 4 2 24 -10 44 -25 40 -31 81 -33 86 -5 3 18 -50 78 -69 78 -6 0 -7 5
-4 10 3 6 -1 10 -9 10 -9 0 -16 5 -16 10 0 6 -7 10 -15 10 -8 0 -15 5 -15 10
0 6 4 10 9 10 6 0 13 -4 16 -10 10 -15 45 -12 51 5 4 8 1 22 -6 30 -18 22 -5
18 42 -12 50 -31 111 -37 116 -11 2 12 -15 29 -57 56 -59 39 -60 39 -35 51 20
9 23 14 15 30 -8 15 -87 61 -105 61 -11 0 -97 42 -93 46 2 3 31 -7 63 -21 33
-15 95 -40 139 -56 44 -17 108 -41 142 -54 70 -28 105 -31 122 -11 18 22 -20
46 -146 91 -98 34 -108 40 -90 50 36 18 27 47 -18 61 -80 24 -277 63 -265 51z
m37 -343 c87 -69 162 -133 166 -141 13 -21 1 -27 -21 -12 -23 17 -312 272
-312 276 0 8 20 -7 167 -123z m170 100 c-3 -3 -12 -4 -19 -1 -8 3 -5 6 6 6 11
1 17 -2 13 -5z m-295 -119 c41 -50 41 -50 -20 10 -34 33 -62 63 -62 67 0 13
38 -24 82 -77z m93 75 c3 -5 1 -10 -4 -10 -6 0 -11 5 -11 10 0 6 2 10 4 10 3
0 8 -4 11 -10z m81 -57 c-6 -6 -36 9 -36 18 0 5 9 4 20 -3 10 -7 18 -14 16
-15z m-886 -219 c-75 -223 -82 -238 -98 -233 -12 4 1 44 99 297 35 90 65 159
67 154 1 -5 -29 -103 -68 -218z m574 149 c25 -43 75 -125 111 -183 62 -101 75
-130 56 -130 -5 0 -13 6 -19 13 -13 15 -202 363 -202 371 0 16 12 0 54 -71z
m-318 -337 c-1 -74 -4 -100 -15 -104 -11 -4 -12 35 -7 229 3 129 7 241 8 249
3 27 14 -272 14 -374z m363 107 c2 -34 -20 -5 -49 65 -18 42 -43 98 -56 124
-13 26 -24 53 -23 60 0 16 128 -231 128 -249z m85 192 c15 -19 23 -35 19 -35
-4 0 -18 16 -31 35 -29 45 -22 45 12 0z m-54 -25 c0 -5 -5 -10 -11 -10 -5 0
-7 5 -4 10 3 6 8 10 11 10 2 0 4 -4 4 -10z m-430 -80 c0 -44 -4 -80 -8 -80 -5
0 -8 10 -6 23 1 12 3 48 3 80 1 31 3 57 6 57 3 0 5 -36 5 -80z m327 -27 c-6
-5 -47 83 -47 101 0 6 12 -13 26 -42 14 -30 23 -56 21 -59z m-387 47 l-8 -35
-1 31 c-1 17 2 34 6 37 11 12 12 3 3 -33z m520 9 c6 -10 7 -19 3 -19 -4 0 -13
11 -20 25 -13 29 2 24 17 -6z m-585 -29 c-4 -17 -9 -29 -12 -26 -3 2 -2 19 2
36 4 17 9 29 12 26 3 -2 2 -19 -2 -36z m242 8 c-3 -8 -6 -5 -6 6 -1 11 2 17 5
13 3 -3 4 -12 1 -19z m373 -28 c0 -5 -2 -10 -4 -10 -3 0 -8 5 -11 10 -3 6 -1
10 4 10 6 0 11 -4 11 -10z m-216 -60 l6 -35 -14 35 c-17 42 -20 58 -7 45 5 -6
12 -26 15 -45z m-411 20 c-3 -11 -7 -20 -9 -20 -2 0 -4 9 -4 20 0 11 4 20 9
20 5 0 7 -9 4 -20z m264 -27 c-3 -10 -5 -2 -5 17 0 19 2 27 5 18 2 -10 2 -26
0 -35z m222 17 c11 -24 11 -24 -3 -6 -9 11 -16 24 -16 30 0 12 5 7 19 -24z
m-563 -17 c-10 -10 -19 5 -10 18 6 11 8 11 12 0 2 -7 1 -15 -2 -18z m201 -25
c-3 -8 -6 -5 -6 6 -1 11 2 17 5 13 3 -3 4 -12 1 -19z"/>
<path d="M777 619 c7 -7 15 -10 18 -7 3 3 -2 9 -12 12 -14 6 -15 5 -6 -5z"/>
</g>
</svg>
