<?xml version="1.0" standalone="no"?>
<!DOCTYPE svg PUBLIC "-//W3C//DTD SVG 20010904//EN"
 "http://www.w3.org/TR/2001/REC-SVG-20010904/DTD/svg10.dtd">
<svg version="1.0" xmlns="http://www.w3.org/2000/svg"
 width="300.000000pt" height="300.000000pt" viewBox="0 0 300.000000 300.000000"
 preserveAspectRatio="xMidYMid meet">
<metadata>
Created by potrace 1.10, written by Peter Selinger 2001-2011
</metadata>
<g transform="translate(0.000000,300.000000) scale(0.100000,-0.100000)"
fill="#000000" stroke="none">
<path d="M1510 2836 c-8 -11 -12 -67 -12 -188 -1 -140 -2 -159 -8 -100 -9 80
-12 87 -35 79 -10 -4 -15 -20 -16 -49 -1 -35 -3 -29 -15 37 -18 102 -19 105
-44 105 -15 0 -20 -7 -20 -29 0 -46 68 -366 76 -358 2 2 -12 82 -31 177 -38
189 -40 200 -26 200 14 0 17 -16 46 -199 13 -90 27 -166 29 -169 12 -12 17 99
7 180 -10 84 -9 109 4 97 2 -3 7 -43 10 -89 4 -47 11 -96 16 -110 5 -14 10
-41 11 -62 2 -20 7 -34 12 -31 5 3 5 111 1 249 -4 133 -4 248 0 254 20 32 24
-36 19 -285 -4 -148 -4 -268 -1 -265 3 3 9 127 13 275 6 235 5 272 -8 283 -12
10 -18 9 -28 -2z m-58 -346 c3 -17 1 -33 -3 -35 -4 -3 -9 13 -11 34 -4 46 8
46 14 1z"/>
<path d="M1652 2717 c-6 -7 -17 -43 -25 -82 -8 -38 -15 -58 -16 -44 -1 34 -23
53 -39 37 -8 -8 -11 -44 -10 -102 1 -50 3 -73 5 -51 8 104 15 145 25 145 6 0
8 -10 5 -22 -3 -13 -8 -63 -11 -113 -4 -81 -4 -84 4 -30 15 94 19 97 13 10 -3
-44 -3 -78 0 -75 2 3 15 73 27 155 20 140 31 177 46 163 3 -4 -11 -88 -31
-188 -20 -101 -33 -185 -30 -188 3 -3 5 -3 5 -1 0 2 14 67 31 144 40 179 46
240 26 248 -9 3 -20 0 -25 -6z"/>
<path d="M1227 2684 c-13 -13 -7 -44 18 -104 30 -72 32 -86 5 -42 -21 35 -32
39 -48 19 -8 -9 2 -37 39 -106 27 -52 47 -102 44 -111 -3 -9 1 -24 8 -34 12
-17 13 -15 11 17 -2 20 -24 77 -49 127 -25 51 -44 97 -42 103 3 7 26 -34 52
-91 27 -56 50 -101 52 -99 2 2 -4 21 -12 42 -9 20 -14 39 -12 41 2 3 15 -20
27 -51 12 -31 25 -54 27 -51 3 2 -20 68 -51 145 -63 159 -73 191 -58 191 11 0
24 -31 98 -248 26 -79 50 -139 52 -133 4 12 -89 293 -115 347 -18 38 -33 50
-46 38z m63 -217 c0 -5 -4 -5 -10 -2 -5 3 -10 14 -10 23 0 15 2 15 10 2 5 -8
10 -19 10 -23z"/>
<path d="M1788 2673 c-9 -10 -34 -76 -58 -146 -23 -71 -44 -126 -47 -124 -2 3
7 41 22 85 29 87 29 115 3 120 -13 2 -20 -16 -38 -93 -28 -123 -20 -135 10
-15 12 49 26 93 31 96 14 8 11 -15 -12 -86 -29 -95 -39 -141 -27 -134 6 4 8
-1 5 -12 -33 -119 -6 -62 48 100 61 185 76 219 87 208 5 -5 -18 -78 -57 -177
-36 -92 -64 -169 -62 -172 2 -2 14 19 26 47 12 27 24 50 26 50 3 0 -2 -16 -10
-37 -8 -20 -13 -38 -11 -41 3 -2 12 13 21 34 44 107 70 160 82 174 25 27 14
-8 -27 -90 -42 -83 -46 -95 -31 -86 5 4 7 -4 3 -16 -5 -19 -6 -20 -12 -4 -5
15 -8 14 -19 -10 -11 -24 -10 -26 3 -14 19 15 22 0 4 -18 -6 -6 -9 -14 -6 -17
4 -4 35 48 160 273 27 48 48 66 48 42 0 -6 -25 -52 -56 -103 -95 -154 -144
-238 -144 -245 0 -4 10 8 22 27 12 19 24 29 26 22 2 -7 15 4 29 24 14 20 27
34 30 31 3 -3 -5 -20 -18 -38 -15 -21 -17 -28 -6 -19 27 22 20 -1 -14 -42 -25
-31 -29 -41 -19 -50 10 -9 11 -9 6 0 -4 7 15 38 46 75 29 35 84 102 122 151
38 48 75 87 83 87 20 0 9 -15 -93 -132 -134 -152 -148 -169 -130 -162 9 3 16
10 16 15 0 5 5 9 11 9 5 0 7 -6 3 -12 -4 -7 33 26 82 75 49 48 94 87 99 87 5
0 -20 -29 -55 -65 -36 -36 -65 -73 -65 -82 0 -9 -7 -19 -15 -21 -13 -5 -13 -3
0 14 14 19 14 19 -8 0 -23 -20 -30 -32 -12 -21 20 12 9 -7 -17 -31 -16 -14
-21 -22 -11 -17 9 4 76 60 148 123 73 63 139 116 146 118 34 8 6 -21 -96 -103
-61 -48 -109 -90 -106 -93 3 -3 14 1 23 9 10 7 7 1 -6 -14 -25 -28 -53 -39
-31 -12 23 27 -6 16 -31 -12 -13 -16 -17 -22 -9 -15 17 14 34 16 25 2 -4 -6 1
-7 12 -3 15 6 16 4 6 -9 -7 -8 -10 -17 -7 -20 3 -3 -11 -16 -30 -28 -20 -12
-36 -24 -36 -27 0 -6 85 42 200 113 130 80 261 154 271 154 36 0 -47 -55 -236
-155 -108 -58 -225 -126 -225 -131 0 -3 18 5 40 16 23 11 45 18 50 15 6 -3 18
-1 27 5 15 9 14 10 -7 4 -29 -7 -26 -2 9 16 15 8 21 8 17 1 -10 -16 -7 -15 85
28 46 22 86 38 88 35 9 -8 -15 -22 -103 -60 -48 -21 -82 -40 -75 -43 7 -2 -9
-15 -36 -27 -78 -37 -14 -17 153 47 153 59 182 67 182 50 0 -5 -77 -35 -172
-67 -147 -50 -168 -59 -146 -66 19 -7 55 -1 135 22 119 35 141 46 73 37 -39
-6 -35 -3 34 22 83 31 104 48 83 69 -15 14 -85 -5 -191 -53 -32 -14 -60 -24
-62 -22 -3 2 27 18 66 35 51 22 70 36 70 50 0 27 -10 33 -32 21 -11 -6 -21 -9
-23 -7 -2 2 43 30 100 62 57 32 106 65 109 73 13 33 -20 43 -64 19 -14 -7 -74
-43 -134 -80 -60 -36 -111 -65 -113 -63 -2 2 19 18 47 35 27 17 50 36 50 42 0
6 -35 -13 -77 -41 -88 -59 -108 -75 -78 -65 17 5 17 3 -4 -14 -13 -11 -28 -20
-35 -20 -6 0 -3 5 8 11 13 8 15 14 7 19 -8 4 22 31 79 71 50 35 86 65 80 67
-6 2 -36 -15 -67 -38 -31 -24 -53 -38 -50 -33 4 6 32 30 64 54 32 24 59 47 61
51 2 4 10 4 18 1 8 -3 14 -2 12 3 -1 5 3 19 10 32 24 42 -19 60 -53 22 -10
-11 -23 -20 -29 -20 -6 0 -17 -9 -24 -20 -7 -11 -17 -20 -24 -20 -6 0 -4 7 5
18 10 10 17 24 17 30 0 26 -40 9 -86 -35 -26 -27 -41 -39 -33 -28 8 11 16 22
19 25 24 22 108 128 113 141 8 24 -12 40 -34 29 -10 -6 -54 -57 -99 -115 -45
-58 -84 -105 -87 -105 -6 0 -1 6 57 80 67 85 64 76 40 100 -22 22 -22 23 -5
61 25 54 11 85 -25 56 -16 -14 -19 -18 -81 -133 -57 -107 -71 -119 -21 -18 31
61 38 84 29 93 -17 17 -26 14 -48 -21 -23 -36 -22 -32 11 59 29 79 17 120 -22
76z m121 -248 c-52 -69 -63 -65 -15 6 23 35 32 57 26 63 -6 6 -10 14 -10 20 0
5 9 0 20 -12 l21 -22 -42 -55z m-11 43 c-8 -13 -31 -51 -52 -85 -40 -67 -58
-85 -30 -31 22 42 85 138 92 138 2 0 -2 -10 -10 -22z m127 -126 c-6 -4 -26
-21 -45 -37 l-36 -30 38 38 c20 20 41 37 45 37 4 0 3 -3 -2 -8z m-127 -51
c-13 -15 -25 -27 -27 -25 -4 4 39 54 47 54 2 0 -7 -13 -20 -29z m172 -116 c0
-2 -10 -9 -22 -15 -22 -11 -22 -10 -4 4 21 17 26 19 26 11z m17 -111 c-3 -3
-12 -4 -19 -1 -8 3 -5 6 6 6 11 1 17 -2 13 -5z m-60 -20 c-3 -3 -12 -4 -19 -1
-8 3 -5 6 6 6 11 1 17 -2 13 -5z"/>
<path d="M1090 2608 c1 -25 23 -65 113 -208 32 -51 56 -94 53 -97 -2 -3 -12 9
-21 26 -31 60 -106 171 -116 171 -5 0 18 -41 52 -91 33 -50 58 -93 56 -96 -3
-2 -13 7 -23 22 -11 17 -20 22 -24 15 -5 -8 -16 0 -30 22 l-24 33 27 -24 c38
-35 33 -19 -13 44 -22 30 -40 59 -40 65 0 7 -6 8 -17 1 -14 -7 -25 -2 -50 24
-20 21 -39 32 -48 29 -20 -8 -19 -20 6 -55 11 -16 17 -29 14 -29 -4 0 9 -14
29 -32 20 -17 36 -36 36 -42 0 -5 -9 0 -20 12 -23 24 -60 30 -60 9 0 -15 41
-61 94 -104 22 -18 37 -35 34 -38 -3 -3 -40 28 -83 68 -43 41 -80 74 -82 75
-3 0 -33 23 -68 51 -63 51 -88 61 -101 39 -5 -7 12 -29 42 -56 27 -25 48 -49
46 -54 -1 -5 1 -7 6 -4 5 3 18 -2 28 -12 11 -9 56 -46 102 -81 138 -105 103
-62 -45 56 -153 123 -185 153 -161 153 14 0 75 -50 323 -264 90 -77 122 -101
68 -48 -42 40 -55 60 -30 46 6 -4 -28 34 -78 85 -49 50 -85 91 -80 91 5 0 50
-39 99 -87 49 -49 84 -80 77 -70 -8 10 -9 17 -3 17 6 0 18 -10 26 -22 9 -12
18 -20 20 -17 3 2 -22 34 -54 69 -33 36 -59 60 -60 54 0 -5 14 -23 30 -39 17
-16 30 -32 30 -36 0 -5 -20 14 -45 40 -25 26 -45 52 -45 57 0 5 4 2 10 -6 5
-8 12 -11 16 -8 4 4 -19 35 -50 68 -64 70 -84 100 -64 100 7 0 60 -58 117
-130 57 -71 111 -135 120 -142 10 -8 9 -4 -4 10 -16 20 -17 25 -5 32 9 5 19 5
27 -2 7 -6 13 -7 13 -3 0 4 8 1 17 -6 20 -16 -7 33 -109 196 -37 60 -68 116
-68 124 0 30 38 -23 105 -147 37 -68 70 -121 72 -118 6 5 -2 21 -76 156 -28
52 -59 102 -68 112 -22 25 -43 23 -43 -4z m6 -145 c16 -21 18 -37 4 -28 -13 8
-33 45 -24 45 4 0 13 -8 20 -17z m114 -155 c0 -6 -7 -5 -15 2 -8 7 -15 17 -15
22 0 6 7 5 15 -2 8 -7 15 -17 15 -22z m-65 -58 c3 -5 2 -10 -4 -10 -5 0 -13 5
-16 10 -3 6 -2 10 4 10 5 0 13 -4 16 -10z"/>
<path d="M1327 2603 c-13 -12 -7 -48 22 -133 36 -105 40 -93 6 21 -27 91 -30
113 -16 104 5 -3 20 -48 32 -101 26 -116 37 -118 14 -2 -22 107 -36 134 -58
111z"/>
<path d="M1642 2380 c0 -14 2 -19 5 -12 2 6 2 18 0 25 -3 6 -5 1 -5 -13z"/>
<path d="M1591 2354 c0 -11 3 -14 6 -6 3 7 2 16 -1 19 -3 4 -6 -2 -5 -13z"/>
<path d="M797 2319 c-9 -6 -17 -13 -17 -17 0 -5 27 -25 60 -46 33 -21 60 -39
60 -41 0 -1 -12 0 -27 2 -16 2 19 -20 77 -48 58 -28 116 -53 130 -54 14 -1 34
-6 45 -10 19 -6 19 -6 1 5 -13 9 -15 14 -6 20 8 5 0 15 -24 29 -38 24 -48 38
-18 26 26 -10 7 6 -85 68 -46 31 -83 52 -83 46 0 -5 34 -32 76 -59 103 -67 83
-64 -25 4 -122 76 -143 86 -164 75z m170 -96 c79 -47 141 -88 139 -90 -5 -5
-265 134 -298 159 -21 16 -21 18 -4 18 11 0 84 -39 163 -87z m38 -58 c44 -24
76 -45 72 -45 -7 0 -154 76 -166 86 -19 16 28 -4 94 -41z"/>
<path d="M921 2325 c3 -2 45 -33 94 -68 60 -43 92 -61 97 -53 7 10 12 1 9 -17
-1 -5 2 -6 7 -3 5 3 26 -6 48 -20 l39 -26 -40 36 c-51 46 -75 61 -75 45 0 -6
-28 11 -63 39 -62 49 -99 72 -113 72 -4 0 -5 -2 -3 -5z"/>
<path d="M1511 2284 c0 -11 3 -14 6 -6 3 7 2 16 -1 19 -3 4 -6 -2 -5 -13z"/>
<path d="M1507 2224 c-4 -4 -7 -29 -7 -56 0 -29 -4 -48 -11 -48 -8 0 -8 -4 -1
-12 5 -7 14 -40 19 -73 8 -57 8 -54 13 65 l6 125 3 -120 3 -120 12 60 c14 78
7 179 -14 183 -9 1 -19 0 -23 -4z"/>
<path d="M1402 2208 c-9 -12 -8 -25 4 -62 12 -36 14 -50 5 -59 -9 -9 -21 0
-50 33 -35 40 -41 43 -55 30 -14 -14 -11 -20 27 -65 23 -27 34 -46 25 -43 -9
4 -18 2 -21 -5 -2 -7 -13 -4 -33 9 -51 36 -78 36 -84 1 -1 -9 51 -43 83 -54
11 -3 16 -12 13 -20 -3 -8 -6 -16 -6 -18 0 -1 -20 2 -45 7 -25 5 -52 7 -60 4
-28 -10 -16 -35 23 -47 46 -14 253 -22 232 -9 -12 8 -13 10 -1 10 8 0 12 2 10
5 -3 2 -19 0 -35 -6 -22 -9 -52 -8 -128 4 -54 9 -100 18 -104 21 -14 14 9 13
98 -5 101 -21 140 -20 75 1 -22 7 -44 16 -49 21 -17 15 10 10 60 -11 69 -30
75 -11 13 39 -28 22 -45 41 -38 41 8 -1 39 -23 69 -50 30 -27 57 -47 59 -44 3
3 -1 9 -9 14 -7 5 -15 16 -16 25 -1 9 -14 35 -29 57 -15 22 -23 43 -19 46 4 4
8 3 11 -3 2 -5 16 -32 32 -59 26 -44 29 -47 36 -27 8 27 -38 180 -64 212 -14
18 -19 19 -29 7z m58 -116 c17 -52 30 -96 27 -98 -6 -6 -77 179 -77 201 1 30
13 5 50 -103z m-73 -25 c77 -99 76 -97 70 -97 -9 0 -147 160 -147 171 0 18 18
0 77 -74z m-42 -64 c52 -31 93 -59 91 -61 -5 -4 -162 80 -191 102 -12 10 -15
15 -7 16 7 0 56 -26 107 -57z"/>
<path d="M1625 2210 c-3 -6 -9 -8 -13 -6 -4 2 -8 -7 -8 -21 -1 -13 -9 -32 -17
-41 -17 -20 -39 -135 -30 -159 4 -9 2 -14 -3 -10 -6 3 -11 -4 -11 -15 -2 -20
-1 -20 13 -2 14 18 15 18 9 -4 -5 -18 -2 -25 15 -29 16 -4 18 -8 8 -14 -20
-13 203 -2 240 11 22 8 32 18 30 29 -3 13 -14 15 -60 13 -41 -2 -57 1 -61 12
-4 9 4 18 23 26 37 15 72 49 64 61 -9 16 -68 6 -82 -13 -7 -10 -19 -18 -27
-18 -27 0 -25 21 6 59 19 24 29 46 26 55 -10 26 -30 18 -60 -24 -16 -22 -33
-40 -38 -40 -6 0 -7 4 -4 10 3 6 -1 7 -9 4 -19 -7 -20 0 -5 28 22 42 28 76 14
88 -9 8 -15 8 -20 0z m-20 -119 c-20 -51 -35 -95 -33 -97 2 -2 15 17 28 41 14
25 28 45 33 45 4 0 -4 -21 -19 -47 l-26 -48 33 36 c19 20 53 58 76 85 23 27
42 44 42 38 1 -18 -140 -174 -152 -167 -6 3 -7 1 -3 -5 4 -7 5 -12 2 -12 -3 0
-10 9 -16 21 -9 15 -7 32 6 72 33 103 58 162 61 146 2 -8 -12 -57 -32 -108z
m210 -40 c-17 -15 -197 -112 -201 -108 -6 6 179 117 196 117 8 0 10 -3 5 -9z
m-169 -65 c-57 -50 -49 -65 19 -36 26 11 52 20 57 20 21 0 -3 -15 -50 -32 -63
-22 -27 -21 83 2 49 10 92 16 95 14 10 -11 -25 -21 -114 -33 -77 -11 -100 -11
-130 0 -20 7 -36 15 -35 19 1 9 103 89 114 89 6 0 -12 -19 -39 -43z"/>
<path d="M851 2191 c3 -8 42 -30 87 -50 120 -52 92 -49 -38 4 -109 44 -163 55
-175 36 -11 -18 27 -41 111 -67 89 -28 109 -43 30 -23 -88 22 -56 2 40 -25 52
-15 98 -25 101 -22 3 3 -7 8 -21 12 -15 3 -25 8 -23 11 3 2 28 -3 56 -13 29
-9 54 -14 57 -11 3 3 -72 31 -165 62 -94 31 -171 61 -171 66 0 17 30 9 168
-45 137 -54 220 -81 153 -50 -23 10 -30 18 -23 23 8 5 -22 22 -75 45 -49 21
-94 43 -102 50 -11 8 -13 8 -10 -3z"/>
<path d="M810 2064 c6 -6 27 -15 46 -19 20 -3 34 -9 31 -11 -3 -3 -32 2 -65
10 -79 21 -121 21 -129 0 -9 -25 20 -41 90 -50 51 -6 57 -9 32 -14 -25 -5 -30
-10 -27 -32 2 -26 0 -27 -50 -30 -46 -3 -53 -6 -56 -25 -4 -24 14 -33 71 -35
33 -1 36 -3 30 -26 -6 -24 -5 -24 55 -20 33 1 58 0 55 -4 -2 -5 -17 -8 -32 -8
-59 0 -255 -40 -270 -55 -34 -33 34 -49 114 -26 17 5 51 12 78 15 40 5 45 4
35 -8 -7 -8 -17 -12 -21 -9 -5 3 -3 -4 4 -16 8 -11 20 -22 29 -24 8 -1 -8 -11
-37 -21 -54 -18 -79 -38 -68 -56 8 -12 46 -13 77 -1 13 5 63 26 111 46 49 20
90 35 93 33 2 -3 -32 -19 -76 -37 -44 -19 -80 -37 -80 -42 0 -5 -1 -12 -2 -16
-1 -5 11 -10 27 -13 28 -5 28 -5 -17 -27 -51 -26 -83 -57 -73 -72 13 -23 39
-14 138 43 26 15 47 26 47 23 0 -3 -16 -15 -36 -26 -35 -21 -36 -23 -19 -41
10 -11 24 -16 33 -13 10 3 0 -7 -20 -23 -46 -36 -66 -70 -51 -85 18 -18 52 0
127 70 39 36 80 73 91 81 11 8 -8 -11 -42 -43 -66 -62 -74 -79 -45 -97 12 -8
13 -13 5 -16 -7 -3 -13 -12 -13 -20 0 -9 -4 -13 -9 -10 -5 3 -8 -2 -7 -12 0
-9 -4 -16 -10 -15 -14 3 -7 -32 10 -46 13 -11 28 -1 75 53 23 28 31 33 27 18
-9 -27 18 -41 45 -24 16 10 15 7 -4 -24 -12 -20 -32 -52 -45 -72 -33 -55 -53
-104 -48 -119 8 -21 34 -15 52 12 9 14 21 22 28 18 6 -3 8 -3 4 1 -4 5 18 56
49 114 57 110 96 169 49 75 -14 -29 -26 -57 -26 -62 0 -14 31 -22 45 -11 8 7
7 -8 -4 -50 -13 -49 -13 -62 -3 -72 11 -11 17 -9 30 8 32 40 47 66 45 75 -4
13 11 11 26 -4 10 -10 15 -8 27 7 14 20 14 20 14 0 0 -10 -4 -35 -10 -54 -13
-46 -4 -72 23 -68 16 2 24 13 30 43 14 67 15 69 32 55 23 -19 43 4 48 53 1 23
3 -2 3 -56 -1 -75 2 -100 14 -107 25 -15 39 9 43 73 2 45 5 56 11 40 8 -22 33
-21 48 1 3 5 10 -8 14 -30 9 -55 21 -74 46 -74 19 0 20 4 15 65 -3 50 -2 63 7
56 7 -6 22 -8 34 -4 21 5 27 -4 23 -30 -1 -5 2 -6 7 -3 5 3 18 -22 29 -54 l20
-60 -21 6 c-14 3 -32 -3 -48 -15 -16 -13 -41 -21 -65 -21 -32 0 -42 -5 -53
-25 -18 -35 7 -63 50 -57 l30 4 0 -57 0 -58 -20 22 c-16 19 -25 22 -58 16 -25
-4 -42 -2 -47 4 -3 6 -17 11 -31 11 -18 0 -31 -11 -52 -45 -31 -52 -44 -58
-36 -16 5 24 1 32 -20 46 -37 25 -74 12 -121 -41 l-40 -44 1 52 c0 29 5 64 12
78 9 21 7 28 -13 47 -15 13 -32 19 -45 16 -17 -5 -20 -1 -20 31 0 70 -54 111
-93 71 -22 -22 -39 -79 -41 -139 -1 -46 -6 -57 -38 -90 -21 -22 -38 -43 -38
-48 0 -4 -5 -8 -10 -8 -6 0 -8 10 -4 24 9 37 -28 70 -69 62 -35 -7 -72 -38
-90 -75 -18 -37 -37 -38 -37 -2 0 16 -5 42 -12 56 -7 17 -8 29 -2 33 23 16 45
65 46 105 4 84 -62 137 -176 141 -172 7 -316 -85 -316 -202 0 -34 32 -87 61
-103 34 -18 106 -12 145 11 l34 22 0 -25 c0 -35 -31 -69 -62 -69 -15 0 -40 9
-56 21 -17 11 -34 21 -40 21 -19 0 -34 -30 -28 -54 16 -64 147 -90 206 -40 32
27 63 77 54 87 -11 10 17 47 35 47 20 0 31 -26 31 -76 0 -61 57 -102 111 -81
13 5 51 8 84 7 81 -2 81 -2 160 2 39 2 78 0 87 -6 11 -7 25 -6 42 2 19 9 32 9
50 1 14 -7 37 -8 53 -4 38 10 113 10 142 1 17 -6 31 -2 51 13 24 18 30 18 40
6 18 -22 53 -18 69 7 l14 22 16 -21 c24 -29 52 -35 83 -19 24 13 32 13 58 0
38 -19 74 -4 107 45 29 43 29 67 1 82 -19 10 -25 8 -50 -21 -15 -19 -30 -31
-33 -28 -3 3 4 40 17 82 l22 76 47 0 c26 0 54 3 63 6 11 4 16 1 16 -11 0 -28
54 -72 108 -89 29 -8 89 -18 134 -22 86 -7 98 -10 98 -23 0 -30 -129 -41 -197
-17 -70 25 -99 -24 -41 -67 22 -16 47 -22 115 -25 78 -3 93 -1 136 21 l48 25
27 -25 c21 -20 33 -23 57 -18 16 4 35 7 42 8 7 0 10 4 8 8 -5 8 19 19 41 19 8
0 23 -9 34 -20 32 -32 68 -25 112 21 43 45 48 83 15 103 -15 9 -23 6 -46 -21
-50 -60 -52 -43 -7 82 34 93 34 164 2 202 -21 24 -27 26 -52 18 -43 -15 -66
-70 -72 -175 -5 -89 -5 -89 -27 -74 -23 15 -84 9 -97 -10 -7 -10 -11 -8 -79
29 -14 8 -63 17 -109 21 -115 10 -164 25 -168 53 -8 51 76 91 189 91 82 0 116
-12 128 -43 27 -70 81 -65 81 6 0 31 -7 45 -31 68 -39 36 -85 49 -180 49 -107
0 -187 -29 -237 -85 -28 -32 -42 -41 -53 -34 -8 5 -26 9 -41 9 -23 0 -28 5
-28 23 0 13 -16 62 -35 110 -19 48 -35 89 -35 92 0 3 9 1 19 -4 22 -12 48 10
35 30 -4 8 -3 9 4 5 7 -4 12 -11 12 -17 0 -24 46 -79 68 -79 28 0 29 27 2 81
-12 22 -18 44 -15 49 4 6 -17 44 -46 85 -51 75 -67 91 -55 58 5 -15 4 -15 -9
1 -8 11 -15 25 -15 30 0 6 5 4 11 -4 9 -13 10 -13 6 0 -2 8 -8 15 -14 15 -6 0
-20 11 -32 25 -14 17 -20 20 -21 10 0 -13 -1 -13 -11 0 -8 11 -8 9 -3 -10 4
-14 8 -32 8 -41 0 -9 6 -16 13 -16 16 0 17 19 1 35 -6 6 -9 14 -6 17 5 6 180
-273 194 -309 9 -24 -13 -19 -30 7 -8 12 -41 71 -74 131 -34 64 -66 110 -75
112 -25 3 -22 -7 29 -107 25 -50 43 -94 40 -97 -9 -8 -11 -5 -60 103 -25 55
-50 99 -55 98 -5 -1 -16 18 -26 43 -9 25 -19 43 -22 41 -2 -3 23 -76 57 -164
113 -290 131 -343 116 -343 -8 0 -19 15 -26 33 -6 17 -40 115 -75 217 -58 170
-106 292 -89 230 3 -14 8 -45 10 -70 1 -25 14 -83 28 -129 28 -90 32 -116 17
-106 -5 3 -20 49 -32 102 -17 72 -24 92 -30 77 -5 -12 -6 -5 -3 19 5 30 3 37
-10 37 -10 0 -16 9 -17 23 0 12 -3 17 -5 11 -3 -6 11 -91 31 -188 39 -194 39
-196 26 -196 -14 0 -17 16 -46 205 -15 94 -30 174 -35 178 -9 10 -6 -203 5
-255 5 -24 3 -38 -3 -38 -6 0 -13 30 -17 68 -11 123 -17 162 -24 162 -4 0 -8
14 -9 32 -2 18 -5 34 -9 37 -3 4 -4 -82 -2 -189 3 -125 0 -196 -6 -197 -6 -2
-9 62 -7 180 2 172 2 180 -14 153 -13 -23 -33 -156 -34 -228 0 -10 -5 -18 -11
-18 -7 0 -8 18 -4 53 15 121 20 205 13 201 -4 -3 -8 5 -9 18 -1 41 -15 -25
-40 -189 -12 -84 -26 -158 -30 -165 -23 -36 -18 20 14 184 20 100 35 183 33
186 -3 2 -10 -15 -16 -37 -6 -23 -15 -39 -19 -36 -5 2 -19 -37 -31 -88 -13
-50 -27 -96 -31 -102 -15 -16 -10 18 16 106 28 92 44 230 21 174 -7 -16 -36
-101 -65 -187 -29 -87 -57 -161 -62 -164 -21 -13 -21 7 -1 58 84 213 112 291
108 296 -3 2 -10 -7 -16 -22 -5 -15 -14 -25 -19 -22 -4 3 -27 -39 -51 -94 -24
-55 -47 -100 -52 -100 -12 0 -11 3 32 91 41 84 48 105 30 94 -6 -3 -7 1 -3 10
4 12 8 13 13 5 5 -8 9 -7 14 5 3 9 4 21 1 26 -3 4 4 27 15 50 12 22 16 38 9
33 -9 -5 -10 -2 -6 9 11 28 2 19 -38 -38 -20 -30 -39 -55 -42 -55 -2 0 -1 5 2
10 3 6 4 10 2 10 -3 0 -32 -40 -66 -90 -34 -49 -67 -92 -73 -96 -21 -13 0 24
57 99 56 75 69 100 38 76 -16 -13 -17 -12 -4 3 7 10 17 16 21 13 5 -3 12 0 16
6 4 8 3 9 -4 5 -18 -11 -14 2 9 37 27 42 -45 -40 -151 -171 -79 -99 -110 -127
-110 -104 0 6 38 53 86 106 47 53 82 101 79 107 -4 5 -1 16 5 24 7 8 9 15 5
15 -4 0 -38 -33 -75 -72 -38 -40 -72 -69 -77 -65 -4 5 25 39 66 77 41 37 71
72 67 78 -3 6 4 19 16 29 13 10 32 30 43 43 22 27 -58 -39 -203 -167 -52 -46
-98 -83 -104 -83 -24 0 6 31 108 113 134 108 135 109 126 124 -6 9 -33 -5 -97
-52 -86 -62 -121 -81 -96 -51 7 8 41 33 77 56 62 41 81 59 48 46 -22 -8 -7 12
19 26 20 10 21 10 8 -5 -7 -10 -9 -17 -3 -17 5 0 15 7 22 15 7 8 9 15 5 15 -4
0 3 9 16 21 33 28 -53 -18 -195 -104 -60 -37 -113 -67 -118 -67 -31 0 15 34
143 105 186 102 213 121 132 88 -11 -4 -14 -3 -9 5 4 6 -40 -11 -98 -39 -57
-28 -110 -49 -117 -47 -7 2 14 17 47 32 115 53 159 76 134 71 -14 -3 -1 6 28
20 55 26 71 42 25 24 -16 -6 -99 -38 -186 -71 -87 -33 -161 -58 -164 -54 -12
12 12 23 182 81 154 52 244 88 175 70 -14 -4 -45 -8 -70 -9 -25 -2 -76 -13
-114 -24 -71 -23 -125 -30 -96 -12 9 5 56 18 105 31 49 12 94 27 100 34 5 7
28 16 50 20 22 4 35 9 29 12 -6 2 -103 -14 -215 -36 -260 -50 -299 -56 -299
-43 0 13 48 23 300 62 113 18 212 36 220 41 11 7 8 8 -10 5 -105 -19 -181 -28
-187 -22 -3 3 7 6 23 7 16 1 40 5 54 10 26 9 2 7 -137 -7 -40 -4 -63 -2 -63 4
0 6 47 13 108 17 59 4 114 11 122 16 10 6 7 8 -12 5 -30 -5 -40 10 -11 16 9 2
-56 1 -145 0 -112 -3 -162 0 -162 7 0 8 64 11 203 11 181 1 199 2 170 15 -18
7 -81 17 -140 21 -153 9 -164 24 -17 21 69 -1 117 -6 110 -10 -7 -6 -4 -7 7
-3 10 3 26 6 35 6 10 0 12 3 7 9 -9 7 -78 20 -317 57 -37 6 -56 18 -41 27 5 3
84 -10 177 -29 166 -33 255 -44 166 -20 -27 8 -39 15 -30 18 8 3 -4 4 -26 1
-26 -3 -44 -1 -49 6 -5 8 2 10 22 6 48 -9 10 5 -80 29 -55 14 -83 18 -77 10z
m110 -92 c0 -4 -16 -6 -35 -4 -19 2 -35 6 -35 8 0 2 16 4 35 4 19 0 35 -4 35
-8z m58 -9 c-10 -2 -26 -2 -35 0 -10 3 -2 5 17 5 19 0 27 -2 18 -5z m-135 -40
c-7 -2 -21 -2 -30 0 -10 3 -4 5 12 5 17 0 24 -2 18 -5z m120 -160 c-7 -2 -19
-2 -25 0 -7 3 -2 5 12 5 14 0 19 -2 13 -5z m-63 -13 c-34 -11 -60 -11 -35 0
11 5 29 8 40 8 16 0 15 -2 -5 -8z m85 -30 c-27 -12 -43 -12 -25 0 8 5 22 9 30
9 10 0 8 -3 -5 -9z m85 -64 c0 -2 -7 -7 -16 -10 -8 -3 -12 -2 -9 4 6 10 25 14
25 6z m-40 -21 c0 -2 -15 -12 -32 -20 l-33 -16 25 20 c24 20 40 26 40 16z m0
-125 c-25 -22 -49 -40 -54 -40 -4 0 14 18 40 40 63 51 72 51 14 0z m170 -197
c-67 -120 -128 -225 -136 -233 -32 -33 -13 21 39 107 157 266 210 353 214 349
3 -2 -50 -103 -117 -223z m-100 114 c0 -2 -10 -12 -22 -23 l-23 -19 19 23 c18
21 26 27 26 19z m120 -17 c-6 -11 -13 -20 -16 -20 -2 0 0 9 6 20 6 11 13 20
16 20 2 0 0 -9 -6 -20z m141 -47 c-12 -20 -14 -14 -5 12 4 9 9 14 11 11 3 -2
0 -13 -6 -23z m-173 -3 c-7 -10 -14 -17 -17 -15 -4 4 18 35 25 35 2 0 -1 -9
-8 -20z m409 -2 c-3 -8 -6 -5 -6 6 -1 11 2 17 5 13 3 -3 4 -12 1 -19z m271 -3
c-3 -3 -9 2 -12 12 -6 14 -5 15 5 6 7 -7 10 -15 7 -18z m-556 -147 c-8 -8 -9
-4 -5 13 4 13 8 18 11 10 2 -7 -1 -18 -6 -23z m-600 -128 c49 -14 88 -61 88
-107 0 -27 -8 -43 -34 -69 -33 -33 -34 -36 -20 -62 7 -15 14 -38 14 -52 0 -48
11 -70 35 -70 24 0 42 18 65 63 18 37 58 57 88 46 32 -12 29 -33 -4 -25 -33 9
-64 -17 -64 -51 0 -33 31 -27 48 10 15 32 32 27 32 -9 0 -34 35 -32 57 4 27
44 55 72 72 72 13 0 16 15 17 84 0 61 5 91 17 110 23 34 42 33 57 -3 14 -35 8
-87 -22 -185 -23 -73 -18 -101 18 -101 19 0 39 32 49 78 9 46 24 30 27 -30 4
-76 22 -80 66 -13 37 56 72 76 103 60 29 -16 24 -33 -7 -26 -33 9 -64 -17 -64
-51 0 -31 30 -28 46 5 15 30 28 30 34 0 10 -41 41 -28 74 30 37 65 59 66 66 3
l5 -44 17 37 c21 42 41 54 64 35 11 -9 14 -23 11 -47 -7 -39 15 -54 41 -28 13
13 17 37 18 111 l1 94 -45 -2 c-28 -1 -47 3 -49 11 -3 9 11 12 50 12 47 0 57
3 62 20 4 11 15 20 27 20 11 0 22 -8 25 -20 5 -18 14 -20 74 -20 56 0 69 -3
69 -16 0 -13 -11 -15 -67 -12 l-68 3 -7 -50 c-4 -27 -14 -66 -23 -86 -33 -72
24 -110 65 -43 15 23 26 32 32 26 6 -6 3 -20 -8 -38 -38 -59 -71 -69 -102 -29
l-19 24 -23 -24 c-43 -45 -80 -27 -80 39 0 35 -2 38 -14 26 -8 -8 -23 -31 -33
-50 -30 -54 -49 -46 -45 20 4 62 2 62 -31 -1 -28 -52 -71 -74 -92 -46 -11 15
-14 15 -25 2 -16 -19 -44 -19 -60 0 -12 14 -16 13 -36 -6 -20 -19 -27 -21 -49
-11 -14 6 -25 19 -25 29 0 14 -3 13 -23 -5 -30 -28 -52 -28 -71 0 l-16 22 -16
-22 c-18 -26 -49 -29 -63 -5 -9 17 -10 17 -28 0 -23 -20 -44 -22 -61 -5 -9 9
-15 9 -24 0 -17 -17 -43 -15 -58 3 -12 14 -15 13 -32 -5 -24 -26 -74 -27 -88
-1 -5 11 -10 34 -10 51 0 17 -7 46 -15 66 -14 33 -16 35 -52 28 -50 -9 -53
-11 -53 -40 0 -68 -53 -124 -117 -124 -32 0 -91 33 -100 55 -10 28 5 28 37 1
39 -32 98 -36 124 -7 28 31 40 90 24 119 -10 20 -10 26 0 29 6 3 12 18 12 35
0 17 9 46 21 64 21 35 49 46 49 19 0 -8 -5 -15 -11 -15 -9 0 -39 -59 -39 -78
0 -5 21 -12 48 -15 56 -7 83 8 102 53 11 28 11 34 -7 58 -29 40 -60 52 -134
52 -87 0 -162 -23 -207 -65 -31 -28 -37 -40 -37 -75 0 -30 6 -46 20 -56 25
-19 80 -18 109 2 16 10 26 11 31 5 9 -16 -55 -51 -92 -51 -19 0 -43 10 -62 26
-57 47 -37 136 42 191 68 47 194 66 279 43z m1649 -15 c34 -18 59 -52 59 -82
0 -32 -28 -29 -32 4 -2 14 -15 35 -31 47 -24 18 -42 21 -120 21 -102 -1 -152
-14 -197 -52 -22 -18 -30 -33 -30 -59 0 -29 5 -36 38 -52 22 -12 79 -24 145
-31 114 -11 140 -20 157 -51 24 -46 -32 -102 -116 -115 -50 -7 -142 9 -170 30
-31 22 -9 28 40 11 88 -30 198 -15 218 30 19 42 -5 54 -135 69 -118 14 -145
22 -184 58 -67 61 17 162 154 187 62 11 168 3 204 -15z m269 0 c23 -28 13
-129 -21 -212 -30 -70 -31 -78 -18 -102 20 -36 40 -33 68 12 32 48 53 34 23
-16 -39 -61 -91 -66 -113 -10 -9 24 -11 25 -28 9 -9 -9 -25 -16 -33 -16 -9 0
-21 -7 -28 -15 -17 -20 -59 -19 -82 2 -39 35 -8 103 52 110 36 4 50 -8 50 -44
0 -13 6 -23 13 -23 30 0 37 25 37 130 1 145 37 226 80 175z m-2024 -56 c-14
-17 -26 -43 -26 -57 0 -53 -16 -61 -125 -65 -39 -2 -40 -1 -40 32 0 44 48 84
125 105 88 24 97 22 66 -15z m134 -14 c25 -46 -33 -95 -78 -66 -11 7 -10 11 2
24 9 9 19 29 22 45 7 35 34 34 54 -3z m525 -90 c0 -13 -8 -21 -22 -23 -17 -3
-23 2 -23 16 0 10 3 22 7 26 13 13 38 1 38 -19z m-50 -44 c3 -5 1 -12 -5 -16
-5 -3 -10 -16 -10 -28 0 -26 -16 -54 -26 -45 -3 4 1 25 9 46 9 22 13 42 10 46
-4 3 -1 6 5 6 6 0 13 -4 17 -9z"/>
<path d="M1136 989 c-3 -17 -6 -61 -5 -98 l1 -66 14 50 c15 56 19 145 5 145
-5 0 -11 -14 -15 -31z"/>
<path d="M1765 980 c-3 -5 -1 -10 4 -10 6 0 11 5 11 10 0 6 -2 10 -4 10 -3 0
-8 -4 -11 -10z"/>
<path d="M1757 943 c-4 -3 -7 -34 -6 -67 0 -68 12 -55 24 28 7 42 0 57 -18 39z"/>
<path d="M628 873 c6 -2 18 -2 25 0 6 3 1 5 -13 5 -14 0 -19 -2 -12 -5z"/>
<path d="M1077 792 c-19 -21 -23 -62 -6 -62 17 0 38 32 39 58 0 27 -11 28 -33
4z"/>
<path d="M2589 1023 c-15 -39 -24 -203 -10 -182 15 24 41 128 41 166 0 42 -17
51 -31 16z"/>
<path d="M2460 796 c0 -8 5 -18 10 -21 6 -3 10 1 10 9 0 8 -4 18 -10 21 -5 3
-10 -1 -10 -9z"/>
<path d="M2414 786 c-10 -26 1 -61 20 -64 29 -6 42 14 23 36 -9 10 -17 24 -17
30 0 17 -20 15 -26 -2z"/>
<path d="M2127 2046 c-65 -17 -115 -35 -111 -38 3 -4 -9 -11 -27 -17 -75 -21
15 -9 177 23 93 19 173 31 177 26 14 -13 -4 -18 -144 -40 -74 -11 -159 -25
-189 -32 l-55 -11 35 -8 c19 -4 73 -3 120 2 109 11 160 11 140 0 -8 -5 -64
-11 -125 -15 -60 -4 -114 -11 -120 -15 -5 -5 -19 -11 -30 -14 -11 -2 71 -5
183 -6 146 -1 202 -4 202 -13 0 -8 -54 -10 -207 -7 -115 3 -182 3 -150 1 31
-1 57 -6 57 -11 0 -4 -15 -6 -32 -4 -31 3 -31 2 -7 -6 14 -5 74 -12 132 -16
61 -4 107 -11 107 -17 0 -7 -23 -8 -67 -3 -84 10 -255 12 -245 4 4 -4 70 -16
147 -29 263 -41 267 -42 251 -57 -3 -4 -93 10 -198 30 -105 21 -193 36 -195
34 -2 -3 17 -10 42 -16 25 -6 44 -15 41 -20 -3 -4 36 -18 87 -30 96 -23 140
-41 101 -41 -11 0 -58 11 -105 25 -46 14 -95 23 -107 20 -13 -3 -21 -2 -19 2
3 4 -5 8 -16 9 -12 0 -35 4 -52 8 -30 7 -30 7 3 -8 18 -9 117 -44 220 -80 222
-76 262 -92 262 -105 0 -14 -48 2 -283 93 -109 42 -201 76 -204 76 -4 0 2 -8
13 -19 10 -10 25 -16 32 -13 15 5 12 -19 -3 -30 -5 -4 -19 -5 -30 -2 -42 13 3
-16 154 -98 137 -74 184 -108 153 -108 -5 0 -68 35 -138 78 -181 109 -224 134
-224 128 0 -2 17 -15 37 -27 20 -13 31 -25 24 -27 -7 -2 30 -33 82 -68 53 -35
98 -68 102 -74 14 -23 -16 -7 -95 50 -45 33 -87 57 -93 53 -6 -4 -7 -1 -2 7 6
10 4 12 -8 7 -9 -3 -28 3 -43 16 -16 12 -25 16 -20 9 4 -7 75 -67 157 -133
135 -109 166 -139 140 -139 -5 0 -69 52 -142 116 -74 64 -143 124 -154 133
-19 15 -19 15 -5 -4 8 -11 22 -26 30 -33 13 -12 12 -13 -5 -8 -11 3 23 -35 74
-84 52 -49 92 -93 87 -97 -4 -4 -44 29 -88 75 -78 80 -97 95 -82 70 4 -7 -11
3 -32 22 -21 19 -33 28 -26 20 20 -24 13 -34 -10 -14 l-22 19 17 -25 c19 -27
22 -44 8 -35 -5 3 -13 0 -17 -6 -4 -7 -3 -9 4 -6 6 4 42 -37 83 -94 57 -80 69
-103 58 -110 -11 -7 -11 -9 2 -9 9 0 19 7 23 15 4 11 15 5 43 -26 27 -29 43
-38 56 -34 18 7 24 55 7 55 -5 0 -10 7 -10 16 0 9 -10 25 -22 35 l-21 19 23 0
c17 0 21 4 17 20 -6 23 11 27 19 5 4 -8 12 -15 19 -15 7 0 15 -5 17 -10 2 -6
16 -12 33 -13 42 -3 43 24 1 63 -34 32 -34 33 -15 53 19 21 19 21 -4 42 -13
11 -18 16 -11 12 38 -25 128 -66 135 -61 23 14 -10 79 -41 79 -17 0 -21 21 -8
46 5 12 1 22 -15 33 -22 15 0 8 137 -45 59 -23 92 -24 100 -3 9 24 3 28 -76
58 -133 51 -143 55 -127 55 19 1 31 24 24 44 -4 9 10 11 55 9 54 -3 60 -2 60
16 0 23 -43 42 -94 42 -30 1 -30 1 -11 16 16 12 17 18 8 32 -9 15 -8 18 6 18
49 1 78 6 96 19 30 24 2 44 -66 47 -48 2 -54 4 -42 16 20 20 11 36 -23 43
l-29 7 30 2 c93 7 128 21 123 48 -3 14 -15 17 -66 16 -51 -1 -60 1 -51 13 6 7
10 12 8 12 -2 -1 -57 -16 -122 -33z m-44 -33 c-7 -2 -19 -2 -25 0 -7 3 -2 5
12 5 14 0 19 -2 13 -5z m96 -37 c-12 -10 -60 -16 -54 -6 3 5 18 10 32 10 15 0
24 -2 22 -4z m-124 -16 c-3 -5 -16 -10 -28 -9 -20 1 -20 2 3 9 14 4 26 8 28 9
2 1 0 -3 -3 -9z m68 -147 c-7 -2 -21 -2 -30 0 -10 3 -4 5 12 5 17 0 24 -2 18
-5z m94 -9 c-3 -3 -12 -4 -19 -1 -8 3 -5 6 6 6 11 1 17 -2 13 -5z m-104 -41
c-7 -2 -19 -2 -25 0 -7 3 -2 5 12 5 14 0 19 -2 13 -5z m-29 -42 c4 -5 -3 -7
-14 -4 -23 6 -26 13 -6 13 8 0 17 -4 20 -9z m-77 -27 c-3 -3 -12 -4 -19 -1 -8
3 -5 6 6 6 11 1 17 -2 13 -5z m184 -12 c-7 -2 -18 1 -23 6 -8 8 -4 9 13 5 13
-4 18 -8 10 -11z m-94 -48 c54 -26 93 -48 86 -51 -6 -2 -52 16 -102 41 -54 27
-97 43 -108 40 -15 -5 -16 -4 -3 5 21 15 18 16 127 -35z m-27 36 c8 -5 11 -10
5 -10 -5 0 -17 5 -25 10 -8 5 -10 10 -5 10 6 0 17 -5 25 -10z m50 -20 c8 -5
11 -10 5 -10 -5 0 -17 5 -25 10 -8 5 -10 10 -5 10 6 0 17 -5 25 -10z m-40 -45
c0 -3 -18 4 -40 15 -22 11 -40 23 -40 25 0 3 18 -4 40 -15 22 -11 40 -23 40
-25z m-105 5 c3 -6 -1 -7 -9 -4 -18 7 -21 14 -7 14 6 0 13 -4 16 -10z m36 -87
c13 -16 12 -17 -3 -4 -10 7 -18 15 -18 17 0 8 8 3 21 -13z m-47 -138 c58 -66
106 -123 106 -127 0 -15 -17 -8 -42 20 -42 45 -198 242 -198 249 0 9 9 0 134
-142z m-119 95 c10 -11 16 -20 13 -20 -3 0 -13 9 -23 20 -10 11 -16 20 -13 20
3 0 13 -9 23 -20z m126 -67 c13 -16 12 -17 -3 -4 -17 13 -22 21 -14 21 2 0 10
-8 17 -17z"/>
<path d="M1655 1891 c-55 -4 -83 -9 -72 -14 11 -4 23 -5 28 -1 12 7 221 -26
234 -37 13 -13 -12 -11 -99 7 -86 18 -123 14 -58 -6 23 -7 42 -17 42 -22 0
-11 -2 -11 -56 12 -80 35 -60 15 40 -39 53 -29 96 -56 96 -62 0 -6 -3 -8 -7
-6 -95 52 -201 121 -197 128 3 5 1 9 -5 9 -5 0 -18 3 -28 6 -13 5 -12 2 5 -10
12 -10 20 -21 17 -26 -3 -5 28 -47 70 -93 41 -47 75 -87 75 -91 0 -19 -24 3
-80 74 -66 84 -89 100 -46 31 27 -43 32 -56 17 -46 -9 5 -61 93 -61 102 0 2 4
2 9 -1 5 -4 7 3 4 14 -6 23 -23 37 -23 20 0 -6 -5 -8 -12 -4 -7 4 -8 3 -4 -5
4 -6 12 -8 18 -5 8 5 9 1 3 -12 -9 -21 -10 -74 0 -111 3 -13 2 -23 -3 -23 -5
0 -13 26 -19 58 -10 54 -10 52 -12 -62 0 -66 -4 -117 -7 -113 -7 7 -6 219 2
257 4 22 4 23 -5 4 -5 -11 -12 -47 -16 -80 -4 -32 -13 -62 -19 -66 -8 -6 -7
-8 2 -8 8 0 12 -18 12 -54 0 -30 5 -58 10 -61 22 -13 40 17 40 66 0 27 3 49 6
49 10 0 33 -32 49 -68 10 -23 20 -32 32 -30 21 4 20 46 -2 89 -13 24 -13 27 4
32 13 3 28 -6 46 -29 29 -36 65 -46 65 -17 0 9 -14 31 -30 48 -20 20 -28 37
-24 48 5 15 11 14 56 -9 39 -20 53 -23 64 -13 13 10 12 14 -1 30 -9 9 -30 23
-46 29 -32 14 -42 51 -11 45 22 -4 73 -7 90 -6 19 2 14 29 -7 41 -11 5 -38 10
-60 10 -32 0 -39 3 -35 15 4 8 5 14 3 13 -2 -1 -44 -4 -94 -7z m19 -116 c11
-8 17 -17 14 -20 -3 -3 -25 13 -49 36 -40 37 -22 29 35 -16z m-70 -78 c35 -91
45 -131 27 -111 -8 9 -71 182 -71 197 0 20 11 -1 44 -86z"/>
<path d="M1038 1883 c12 -2 32 -2 45 0 12 2 2 4 -23 4 -25 0 -35 -2 -22 -4z"/>
<path d="M1300 1880 c11 -7 2 -10 -31 -10 -31 0 -55 -6 -70 -19 -22 -18 -23
-20 -6 -27 10 -3 40 -4 67 -1 69 8 72 -12 8 -52 -87 -55 -46 -44 55 14 52 30
102 55 109 55 7 0 -32 -27 -87 -60 -55 -33 -101 -64 -103 -70 -2 -6 18 3 46
19 27 17 54 31 60 31 6 0 27 14 47 31 20 18 38 29 41 26 7 -7 -68 -67 -85 -67
-11 0 -12 -3 -3 -12 9 -9 3 -21 -24 -50 -20 -22 -32 -44 -28 -50 6 -9 9 -8 12
2 8 25 154 185 165 182 6 -2 6 2 -1 11 -9 10 -9 17 1 27 10 12 9 12 -5 1 -10
-7 -18 -11 -18 -7 0 5 -22 -3 -117 -41 -7 -3 -13 -1 -13 4 0 6 19 16 43 23 64
20 27 24 -59 6 -88 -18 -112 -20 -98 -7 10 10 221 44 232 37 4 -2 16 0 27 5
12 4 -19 8 -80 8 -68 1 -95 -2 -85 -9z m155 -39 c3 -5 2 -12 -3 -15 -5 -3 -9
1 -9 9 0 17 3 19 12 6z"/>
<path d="M1768 1883 c6 -2 18 -2 25 0 6 3 1 5 -13 5 -14 0 -19 -2 -12 -5z"/>
<path d="M1618 1863 c7 -3 16 -2 19 1 4 3 -2 6 -13 5 -11 0 -14 -3 -6 -6z"/>
<path d="M1495 1830 c-3 -5 -1 -10 4 -10 6 0 11 5 11 10 0 6 -2 10 -4 10 -3 0
-8 -4 -11 -10z"/>
<path d="M1391 1721 c-38 -47 -67 -88 -65 -90 6 -7 84 80 115 129 16 25 29 40
29 34 0 -5 -13 -31 -29 -56 -16 -25 -27 -48 -24 -51 2 -3 -3 -26 -12 -53 -16
-49 -10 -72 18 -61 20 8 91 217 74 217 -3 0 -20 -44 -37 -97 -18 -54 -36 -102
-41 -108 -16 -17 -10 22 12 77 12 29 29 74 39 99 29 73 -1 58 -79 -40z"/>
<path d="M1315 1720 c3 -5 8 -10 11 -10 2 0 4 5 4 10 0 6 -5 10 -11 10 -5 0
-7 -4 -4 -10z"/>
<path d="M1150 1600 c-14 -11 -20 -20 -14 -20 6 0 19 9 29 20 23 25 17 25 -15
0z"/>
<path d="M1215 1550 c-15 -16 -33 -28 -38 -27 -6 1 -11 -3 -12 -10 0 -6 -3
-15 -7 -19 -11 -10 -10 -26 1 -20 12 8 94 106 89 106 -2 0 -17 -13 -33 -30z"/>
<path d="M1145 1540 c-3 -5 -2 -10 4 -10 5 0 13 5 16 10 3 6 2 10 -4 10 -5 0
-13 -4 -16 -10z"/>
<path d="M1401 1404 c0 -11 3 -14 6 -6 3 7 2 16 -1 19 -3 4 -6 -2 -5 -13z"/>
<path d="M822 554 c-31 -21 -30 -76 2 -101 21 -17 42 -19 227 -18 169 1 207
-1 222 -14 15 -13 21 -13 39 -2 36 22 94 26 242 16 47 -3 72 -9 80 -20 19 -26
41 -8 62 48 18 49 19 50 22 22 5 -44 21 -58 56 -51 36 7 32 7 112 3 37 -2 72
-10 88 -20 28 -19 59 -16 83 8 7 7 34 12 64 11 62 -1 84 20 71 69 -8 29 -11
30 -66 32 -32 1 -63 6 -68 11 -7 7 -19 7 -35 1 -16 -6 -30 -5 -42 3 -11 7 -26
8 -37 3 -11 -5 -23 -10 -29 -11 -5 -1 -14 -3 -20 -4 -25 -5 -71 3 -86 16 -8 8
-26 14 -38 14 -28 0 -63 -18 -56 -29 8 -14 -109 0 -126 15 -21 18 -38 18 -61
-2 -26 -25 -161 -23 -189 2 -28 25 -52 8 -60 -42 -3 -21 -7 -29 -8 -18 0 12
-7 27 -14 33 -16 12 -184 17 -300 7 -16 -1 -34 5 -44 16 -20 22 -61 23 -91 2z
m78 -20 c0 -13 -3 -14 -15 -4 -21 17 -45 5 -45 -23 0 -35 25 -54 47 -36 14 12
16 12 11 -1 -8 -26 -45 -24 -64 5 -24 37 -6 75 36 75 21 0 30 -5 30 -16z m420
-41 c-3 -41 -9 -58 -19 -58 -8 0 -17 7 -19 15 -5 13 -3 13 12 0 17 -13 18 -11
15 43 -3 34 0 57 6 57 6 0 8 -22 5 -57z m250 7 c0 -27 -4 -50 -10 -50 -5 0
-10 23 -10 50 0 28 5 50 10 50 6 0 10 -22 10 -50z m236 25 c19 -29 -2 -69 -39
-73 -26 -3 -27 -2 -27 48 0 50 1 51 26 48 15 -2 33 -12 40 -23z m164 15 c0 -5
-4 -10 -10 -10 -5 0 -10 5 -10 10 0 6 5 10 10 10 6 0 10 -4 10 -10z m-906 -89
c-1 -1 -7 0 -13 4 -13 7 -14 45 -4 72 6 13 9 6 14 -27 4 -25 5 -47 3 -49z
m1006 32 c0 -18 -4 -33 -8 -33 -5 0 -7 13 -4 29 2 18 -1 30 -11 34 -9 3 -14 0
-13 -11 1 -11 -8 -18 -24 -21 l-25 -4 25 -6 c16 -5 25 -14 25 -26 0 -15 -7
-20 -25 -20 -21 0 -25 5 -24 28 2 56 4 62 27 73 33 15 57 -4 57 -43z m-1050
32 c11 -13 10 -14 -6 -9 -19 7 -19 7 -1 -14 21 -23 15 -42 -13 -42 -15 0 -19
6 -18 28 1 23 14 52 23 52 1 0 8 -7 15 -15z m120 -24 c0 -24 -25 -45 -45 -37
-18 6 -20 47 -3 64 15 15 48 -3 48 -27z m246 0 c-4 -6 -12 -11 -18 -11 -7 0
-6 6 2 15 10 12 9 15 -4 15 -12 0 -16 -7 -14 -22 2 -15 9 -22 22 -21 12 1 15
-2 8 -9 -16 -16 -42 -1 -42 25 0 33 20 51 38 33 8 -8 11 -19 8 -25z m83 -5
l-13 -35 -13 26 c-9 18 -10 30 -3 37 7 7 10 4 11 -9 0 -18 1 -18 11 3 17 34
22 18 7 -22z m67 5 c-11 -17 -26 -13 -20 4 4 8 1 15 -6 15 -6 0 -10 -10 -8
-22 2 -16 9 -22 22 -20 11 2 15 -1 11 -7 -10 -17 -33 -13 -44 7 -7 14 -6 25 6
41 14 20 17 21 30 8 9 -8 12 -20 9 -26z m162 31 c-1 -4 -11 -28 -22 -55 -10
-26 -23 -47 -27 -47 -12 0 -11 14 1 26 14 14 1 52 -22 57 -17 5 -19 2 -16 -24
3 -20 0 -29 -9 -29 -8 0 -13 13 -13 35 0 33 2 35 35 35 29 0 35 -4 36 -22 1
-21 2 -21 12 5 6 15 15 27 20 27 5 0 7 -3 5 -8z m178 -31 c-11 -17 -26 -13
-20 4 4 8 1 15 -6 15 -6 0 -10 -10 -8 -22 2 -16 9 -22 22 -20 11 2 15 -1 11
-7 -10 -17 -33 -13 -45 8 -13 25 -13 27 6 46 15 14 19 15 32 2 8 -8 11 -20 8
-26z m54 19 c0 -5 -8 -7 -17 -4 -13 4 -12 1 4 -11 12 -9 19 -23 16 -31 -6 -16
-43 -20 -43 -4 0 5 7 7 15 4 8 -4 15 -2 15 4 0 5 -7 12 -15 16 -18 7 -20 33
-2 39 14 5 27 -1 27 -13z m240 0 c0 -5 -8 -7 -17 -4 -13 4 -12 1 4 -11 12 -9
19 -23 16 -31 -6 -16 -43 -20 -43 -4 0 5 7 7 15 4 8 -4 15 -2 15 4 0 5 -7 12
-15 16 -18 7 -20 33 -2 39 14 5 27 -1 27 -13z m-1240 -21 c0 -17 4 -28 10 -24
6 3 10 17 10 31 0 13 4 24 10 24 5 0 9 -15 8 -34 -1 -31 -4 -34 -27 -33 -21 2
-27 8 -29 35 -2 18 1 32 7 32 6 0 11 -14 11 -31z m240 -4 c0 -19 -4 -35 -8
-35 -5 0 -8 16 -8 35 1 46 16 46 16 0z m78 -2 c2 -19 -1 -33 -7 -33 -6 0 -11
14 -11 30 0 17 -4 30 -10 30 -5 0 -10 -13 -10 -30 0 -41 -17 -38 -22 4 -4 32
-2 34 27 33 26 -2 30 -6 33 -34z m172 25 c0 -7 3 -24 6 -38 5 -17 3 -22 -3
-15 -15 15 -25 65 -13 65 5 0 10 -6 10 -12z m550 -23 c0 -19 -4 -35 -10 -35
-5 0 -10 16 -10 35 0 19 5 35 10 35 6 0 10 -16 10 -35z m141 -3 c5 -24 3 -32
-8 -32 -10 0 -12 6 -8 20 4 12 1 28 -7 37 -11 14 -11 15 2 11 8 -2 17 -19 21
-36z"/>
<path d="M1760 500 c0 -42 9 -50 30 -25 15 19 5 65 -15 65 -11 0 -15 -11 -15
-40z"/>
<path d="M2000 500 c0 -5 5 -10 10 -10 6 0 10 5 10 10 0 6 -4 10 -10 10 -5 0
-10 -4 -10 -10z"/>
<path d="M1998 438 c9 -9 15 -9 24 0 9 9 7 12 -12 12 -19 0 -21 -3 -12 -12z"/>
<path d="M990 470 c0 -5 5 -10 10 -10 6 0 10 5 10 10 0 6 -4 10 -10 10 -5 0
-10 -4 -10 -10z"/>
<path d="M1094 495 c-3 -8 -3 -19 1 -25 11 -18 25 -11 25 15 0 27 -17 34 -26
10z"/>
</g>
</svg>
